<svg height='100px' width='100px'  fill="#00a0dd" xmlns="http://www.w3.org/2000/svg" data-name="Layer 1" viewBox="0 0 100 100" x="0px" y="0px"><title>saving</title><path d="M84.4,39.69H65.19a15.83,15.83,0,0,0-30.29,0H15.6A10.11,10.11,0,0,0,5.5,49.79V81.94A10.11,10.11,0,0,0,15.6,92H84.4a10.11,10.11,0,0,0,10.1-10.1V49.79A10.11,10.11,0,0,0,84.4,39.69ZM50,31.46a12.83,12.83,0,0,1,6.35,24c-2.18.16-4.46.26-6.75.26-2,0-4-.08-5.85-.2a12.83,12.83,0,0,1,6.25-24ZM91.5,81.94A7.11,7.11,0,0,1,84.4,89H15.6a7.11,7.11,0,0,1-7.1-7.1V49.79a7.11,7.11,0,0,1,7.1-7.1H34.29A15.85,15.85,0,0,0,38.36,55a100.92,100.92,0,0,1-11.87-2.11,1.5,1.5,0,0,0-.76,2.9A105.41,105.41,0,0,0,49.64,58.7a116.13,116.13,0,0,0,24.6-2.91,1.5,1.5,0,0,0-.71-2.91,114.41,114.41,0,0,1-11.74,2,15.84,15.84,0,0,0,4-12.22H84.4a7.11,7.11,0,0,1,7.1,7.1Z"></path><path d="M77.23,30.07A11.06,11.06,0,1,0,66.17,19,11.07,11.07,0,0,0,77.23,30.07Zm0-19.11A8.06,8.06,0,1,1,69.17,19,8.06,8.06,0,0,1,77.23,11Z"></path><path d="M64.1,64.32a102.39,102.39,0,0,1-14.46.94,86.37,86.37,0,0,1-13.71-.93,1.5,1.5,0,0,0-.53,3,87.43,87.43,0,0,0,14.24,1,103.78,103.78,0,0,0,14.93-1,1.5,1.5,0,0,0-.47-3Z"></path><path d="M49.49,47A7.43,7.43,0,0,1,46,46.1l-.63,2.46a8.47,8.47,0,0,0,3.58.9v2H51V49.31c2.42-.42,3.74-2,3.74-3.89s-1-3-3.51-3.93c-1.79-.67-2.52-1.11-2.52-1.81s.44-1.18,1.81-1.18a7,7,0,0,1,3,.71l.61-2.38a7.56,7.56,0,0,0-3-.69V34.3H49v2c-2.25.44-3.55,1.89-3.55,3.74,0,2,1.54,3.09,3.79,3.85,1.56.53,2.23,1,2.23,1.83S50.69,47,49.49,47Z"></path><path d="M76.92,21a4,4,0,0,1-1.9-.5l-.34,1.34a4.61,4.61,0,0,0,1.95.49v1.09h1.12V22.21a2.2,2.2,0,0,0,2-2.12c0-1-.55-1.66-1.91-2.14-1-.37-1.37-.61-1.37-1s.24-.64,1-.64a3.8,3.8,0,0,1,1.65.39l.33-1.29A4.12,4.12,0,0,0,77.81,15V14H76.68v1.09a2.12,2.12,0,0,0-1.94,2c0,1.11.84,1.68,2.06,2.1.85.29,1.21.56,1.21,1S77.58,21,76.92,21Z"></path></svg>