<svg height='100px' width='100px'  fill="#00a0dd" xmlns="http://www.w3.org/2000/svg" xmlns:xlink="http://www.w3.org/1999/xlink" version="1.1" x="0px" y="0px" viewBox="0 0 100 100" enable-background="new 0 0 100 100" xml:space="preserve"><g><rect x="-192" width="185" height="99"></rect><rect y="-36" width="100" height="30"></rect><text transform="matrix(1 0 0 1 66 -19.5)" fill="#00a0dd" font-family="'Helvetica'" font-size="2.4">http://thenounproject.com</text><text transform="matrix(1 0 0 1 7.166 -24.5)" fill="#00a0dd" font-family="'Helvetica-Bold'" font-size="6.1578">The Noun Project</text><text transform="matrix(1 0 0 1 8.2861 -19.7002)" fill="#00a0dd" font-family="'Helvetica-Bold'" font-size="4">Icon Template</text><text transform="matrix(1 0 0 1 -178.5 10.5)" fill="#00a0dd" font-family="'Helvetica-Bold'" font-size="6.1578">Reminders</text><line fill="#00a0dd" stroke="#00a0dd" stroke-miterlimit="10" x1="8" y1="-14.5" x2="18" y2="-14.5"></line><line fill="#00a0dd" stroke="#00a0dd" stroke-miterlimit="10" x1="-179" y1="16.5" x2="-162" y2="16.5"></line><g><g><g><rect x="-170.802" y="31.318" fill="#00a0dd" width="8.721" height="8.642"></rect><path fill="#00a0dd" d="M-164.455,42.312h4.747v-4.703h-4.747V42.312z M-159.266,42.749h-5.63V37.17h5.63V42.749      L-159.266,42.749z M-166.221,44.062h8.279v-8.203h-8.279V44.062L-166.221,44.062z M-157.5,44.5h-9.163v-9.079h9.163V44.5      L-157.5,44.5z"></path><polygon fill="#00a0dd" points="-166.149,44.133 -166.292,43.991 -158.013,35.787 -157.871,35.929     "></polygon></g></g></g><rect x="-179" y="58" fill="none" width="35" height="32.5"></rect><text transform="matrix(1 0 0 1 -179 60.1572)" fill="#00a0dd" font-family="'Helvetica-Bold'" font-size="3">Strokes</text><text transform="matrix(1 0 0 1 -179 65.1572)" fill="#00a0dd" font-family="'Helvetica'" font-size="2.4">Try to keep strokes at 4px</text><text transform="matrix(1 0 0 1 -179 70.1572)" fill="#00a0dd" font-family="'Helvetica'" font-size="2.4">Minimum stroke weight is 2px</text><text transform="matrix(1 0 0 1 -179 74.6572)" fill="#00a0dd" font-family="'Helvetica'" font-size="2.4">For thicker strokes use even </text><text transform="matrix(1 0 0 1 -179 77.6572)" fill="#00a0dd" font-family="'Helvetica'" font-size="2.4">numbers: 6px, 8px etc.</text><text transform="matrix(1 0 0 1 -179 82.1572)" fill="#00a0dd" font-family="'Helvetica-Bold'" font-size="2.4">Remember to expand strokes </text><text transform="matrix(1 0 0 1 -179 85.1572)" fill="#00a0dd" font-family="'Helvetica-Bold'" font-size="2.4">before saving as an SVG </text><rect x="-136.5" y="58" fill="none" width="35" height="32.5"></rect><text transform="matrix(1 0 0 1 -136.5 60.1572)" fill="#00a0dd" font-family="'Helvetica-Bold'" font-size="3">Size</text><text transform="matrix(1 0 0 1 -136.5 65.1572)" fill="#00a0dd" font-family="'Helvetica'" font-size="2.4">Cannot be wider or taller than </text><text transform="matrix(1 0 0 1 -136.5 68.6572)" fill="#00a0dd" font-family="'Helvetica'" font-size="2.4">100px (artboard size)</text><text transform="matrix(1 0 0 1 -136.5 73.6572)" fill="#00a0dd" font-family="'Helvetica'" font-size="2.4">Scale your icon to fill as much of </text><text transform="matrix(1 0 0 1 -136.5 76.6572)" fill="#00a0dd" font-family="'Helvetica'" font-size="2.4">the artboard as possible</text><rect x="-94" y="58" fill="none" width="35" height="32.5"></rect><text transform="matrix(1 0 0 1 -94 60.1572)" fill="#00a0dd" font-family="'Helvetica-Bold'" font-size="3">Ungroup</text><text transform="matrix(1 0 0 1 -94 65.1572)" fill="#00a0dd" font-family="'Helvetica'" font-size="2.4">If your design has more than one </text><text transform="matrix(1 0 0 1 -94 68.1572)" fill="#00a0dd" font-family="'Helvetica'" font-size="2.4">shape, make sure to ungroup</text><rect x="-50" y="58" fill="none" width="35" height="32.5"></rect><text transform="matrix(1 0 0 1 -50 60.1572)" fill="#00a0dd" font-family="'Helvetica-Bold'" font-size="3">Save as</text><text transform="matrix(1 0 0 1 -50 65.1572)" fill="#00a0dd" font-family="'Helvetica'" font-size="2.4">Save as .SVG and make sure </text><text transform="matrix(1 0 0 1 -50 68.1572)" fill="#00a0dd" font-family="'Helvetica'" font-size="2.4">“Use Artboards” is checked</text><text transform="matrix(1.0074 0 0 1 -125.542 30.5938)" fill="#00a0dd" font-family="'Helvetica'" font-size="2.5731">100px</text><text transform="matrix(1.0074 0 0 1 -41 39)" fill="#00a0dd" font-family="'Helvetica-Bold'" font-size="5.1462">.SVG</text><rect x="-126.514" y="34.815" fill="#00a0dd" width="10.261" height="10.185"></rect><rect x="-126.477" y="31.766" fill="#00a0dd" width="0.522" height="2.337"></rect><rect x="-116.812" y="31.766" fill="#00a0dd" width="0.523" height="2.337"></rect><rect x="-127" y="32.337" fill="#00a0dd" width="11.233" height="0.572"></rect><g><rect x="-83.805" y="33.844" fill="#00a0dd" width="10.305" height="10.156"></rect><rect x="-76.809" y="28.707" fill="#00a0dd" width="3.308" height="3.261"></rect></g><rect x="-178.5" y="22.5" fill="#00a0dd" stroke="#00a0dd" stroke-miterlimit="10" width="30" height="30"></rect><rect x="-136.5" y="22.5" fill="#00a0dd" stroke="#00a0dd" stroke-miterlimit="10" width="30" height="30"></rect><rect x="-93.5" y="22.5" fill="#00a0dd" stroke="#00a0dd" stroke-miterlimit="10" width="30" height="30"></rect><rect x="-49.5" y="22.5" fill="#00a0dd" stroke="#00a0dd" stroke-miterlimit="10" width="30" height="30"></rect></g><path d="M28.503,38.696h43.638v-4.285H28.503V38.696z M28.503,47.254h18.838v-4.28H28.503V47.254z M28.503,29.809h43.638v-4.277  H28.503V29.809z M72.142,16.977H28.503v4.281h43.638V16.977z M42.439,98.499l7.026-3.714l7.027,3.714V80.163h-8.9L42.439,98.499z   M13.388,1.834v89.257h26.604l1.09-3.881H18.42V6.491h63.173v80.867l-5.008-0.026l1.056,3.76h8.625l0.066-25.884V1.834H13.388z   M58.818,57.238c-3.915,0-7.089,3.178-7.089,7.092c0,3.91,3.174,7.09,7.089,7.09s7.091-3.18,7.091-7.09  C65.909,60.416,62.733,57.238,58.818,57.238z M61.85,80.163v18.336l7.026-3.714l7.024,3.714l-5.15-18.336H61.85z M66.552,77.727  l0.923-4.74l4.74-0.922l-1.571-4.566l3.645-3.168l-3.645-3.17l1.571-4.564l-4.74-0.924l-0.923-4.738l-4.564,1.57l-3.169-3.644  l-3.168,3.644l-4.565-1.57l-0.923,4.738l-4.74,0.924l1.571,4.564l-3.644,3.17l3.644,3.168l-1.571,4.566l4.74,0.922l0.923,4.74  l4.565-1.572l3.168,3.645l3.169-3.645L66.552,77.727z M49.169,64.33c0-5.33,4.322-9.648,9.649-9.648  c5.331,0,9.649,4.318,9.649,9.648c0,5.326-4.318,9.646-9.649,9.646C53.491,73.977,49.169,69.656,49.169,64.33z"></path></svg>