<svg height='100px' width='100px'  fill="#00a0dd" xmlns="http://www.w3.org/2000/svg" xmlns:xlink="http://www.w3.org/1999/xlink" version="1.1" x="0px" y="0px" viewBox="0 0 128 128" style="enable-background:new 0 0 128 128;" xml:space="preserve"><style type="text/css">
	.st0{fill-rule:evenodd;clip-rule:evenodd;}
</style><path d="M19,76.4c-1.1-2.3-2.4-3.7-4.4-4.8c-0.5-0.3-0.9-0.6-1.2-0.9l-2.8,1.5L11,69c0.2-1.4-0.2-2.8-1.2-3.7l-2.3-2.3l3.2-0.5  c1.3-0.2,2.5-1.1,3.1-2.3l1.4-3l1.4,3c0.6,1.2,1.8,2.1,3.1,2.3l2.8,0.4c0.9-1.4,1.9-2.6,3-3.8l-5.2-0.8L16.4,50  c-0.3-0.7-0.8-1-1.2-1c-0.4,0-0.9,0.3-1.2,1l-3.9,8.2l-8.8,1.3c-1.5,0.2-1.8,1.3-0.7,2.3L7,68.3l-1.5,9C5.3,78.4,5.7,79,6.4,79  c0.3,0,0.6-0.1,1-0.3l7.9-4.3L19,76.4C19,76.5,19,76.4,19,76.4z"></path><path d="M63,76.4c-1.1-2.3-2.4-3.7-4.4-4.8c-0.5-0.3-0.9-0.6-1.2-0.9l-2.8,1.5L55,69c0.2-1.4-0.2-2.8-1.2-3.7l-2.3-2.3l3.2-0.5  c1.3-0.2,2.5-1.1,3.1-2.3l1.4-3l1.4,3c0.6,1.2,1.8,2.1,3.1,2.3l2.8,0.4c0.9-1.4,1.9-2.6,3-3.8l-5.2-0.8L60.4,50  c-0.3-0.7-0.8-1-1.2-1c-0.4,0-0.9,0.3-1.2,1l-3.9,8.2l-8.8,1.3c-1.5,0.2-1.8,1.3-0.7,2.3l6.4,6.4l-1.5,9c-0.2,1.1,0.2,1.7,0.9,1.7  c0.3,0,0.6-0.1,1-0.3l7.9-4.3L63,76.4C63,76.5,63,76.4,63,76.4z"></path><path d="M109,76.4c-1.1-2.3-2.4-3.7-4.4-4.8c-0.5-0.3-0.9-0.6-1.2-0.9l-2.8,1.5l0.5-3.3c0.2-1.4-0.2-2.8-1.2-3.7l-2.3-2.3l3.2-0.5  c1.3-0.2,2.5-1.1,3.1-2.3l1.4-3l1.4,3c0.6,1.2,1.8,2.1,3.1,2.3l2.8,0.4c0.9-1.4,1.9-2.6,3-3.8l-5.2-0.8l-3.9-8.2  c-0.3-0.7-0.8-1-1.2-1c-0.4,0-0.9,0.3-1.2,1l-3.9,8.2l-8.8,1.3c-1.5,0.2-1.8,1.3-0.7,2.3l6.4,6.4l-1.5,9c-0.2,1.1,0.2,1.7,0.9,1.7  c0.3,0,0.6-0.1,1-0.3l7.9-4.3L109,76.4C109.1,76.5,109,76.4,109,76.4z"></path><path class="st0" d="M36.8,59.1c1.8-0.7,1.3-3.5-0.3-3.5c-0.2,0-0.4,0-0.6,0.1c-6.1,2.3-11.1,7.8-13.4,14.1c-1.3-1.6-2.9-3-4.8-4  c-0.3-0.1-0.6-0.2-0.8-0.2c-1.6,0-2.6,2.4-0.9,3.2c2.7,1.4,4.4,3.4,5.8,6.1c0.3,0.6,0.9,0.8,1.5,0.8c0.7,0,1.5-0.4,1.6-1.3  C25.8,68,30.6,61.4,36.8,59.1z"></path><path class="st0" d="M80.8,59.1c1.8-0.7,1.3-3.5-0.3-3.5c-0.2,0-0.4,0-0.6,0.1c-6.1,2.3-11.1,7.8-13.4,14.1c-1.3-1.6-2.9-3-4.8-4  c-0.3-0.1-0.5-0.2-0.8-0.2c-1.6,0-2.6,2.4-0.9,3.2c2.7,1.4,4.4,3.4,5.8,6.1c0.3,0.6,0.9,0.8,1.5,0.8c0.7,0,1.5-0.4,1.6-1.3  C69.8,68,74.6,61.4,80.8,59.1z"></path><path class="st0" d="M126.8,59.1c1.8-0.7,1.3-3.5-0.3-3.5c-0.2,0-0.4,0-0.6,0.1c-6.1,2.3-11.1,7.8-13.4,14.1c-1.3-1.6-2.9-3-4.8-4  c-0.3-0.1-0.6-0.2-0.8-0.2c-1.6,0-2.6,2.4-0.9,3.2c2.7,1.4,4.4,3.4,5.8,6.1c0.3,0.6,0.9,0.8,1.5,0.8c0.7,0,1.5-0.4,1.6-1.3  C115.9,68,120.7,61.4,126.8,59.1z"></path></svg>