<svg height='100px' width='100px'  fill="#00A0DD" xmlns="http://www.w3.org/2000/svg" xmlns:xlink="http://www.w3.org/1999/xlink" version="1.1" x="0px" y="0px" viewBox="0 0 64 64" style="enable-background:new 0 0 64 64;" xml:space="preserve"><g><path d="M63,28.4l-0.5-0.8c-1.4,1.6-3.5,2.5-5.8,2.5h-0.1c-0.6,0-1.3,0-2,0.1c0.1,0.6,0.1,1.2,0.1,1.8c0,12.5-10.2,22.7-22.7,22.7   c-4.9,0-9.4-1.6-13.1-4.2c-0.8,0.2-1.6,0.4-2.5,0.4c-3,0-5.8-1.5-7.5-4.2c-0.3-0.5-1.4-3.3-1.5-3.5c-0.1-0.3-1.2-2.6-1.2-2.6   c0,0-0.7-1.3-0.8-1.5c-0.6-1-1.2-1.9-1.8-2.8c-0.3-0.4-1.3-1.7-1.5-1.9c0,0-0.5-0.5-0.6-0.6L1,35.6L4,41l0.7,6.2l4.9,3.8l3,5.4   l6,1.7l4.9,3.8l6.2-0.7l6,1.7l5.4-3l6.2-0.7l3.8-4.9l5.4-3l1.7-6l3.9-4.9l-0.7-6.2L63,28.4z M11.6,21.9C15.3,14.4,23.1,9.3,32,9.3   c6,0,11.5,2.3,15.5,6.1c0.8-0.2,1.5-0.3,2.2-0.5c2.3-0.4,4.4-0.6,6.5-0.5l-1.9-1.5l-3-5.4l-6-1.7L40.5,2l-6.2,0.7l-6-1.7L23,4   l-6.2,0.7l-3.9,4.9l-5.4,3l-1.7,6l-2,2.6C6.3,20.1,9.3,20.3,11.6,21.9z"></path><path d="M31.4,21.7c-3.4,1.8-6.9,3.8-10.5,6.2c-0.7,0.4-1.3,0.9-2,1.3C17.9,28.1,17,27,16,26c-0.2-0.3-0.5-0.5-0.8-0.8   c2.7-6.6,9.2-11.3,16.8-11.3c3.7,0,7.2,1.1,10.1,3.1C38.7,18.2,35.3,19.7,31.4,21.7z"></path><path d="M50.1,32c0,10-8.1,18.1-18.1,18.1c-3.1,0-6.1-0.8-8.7-2.2l0.9-0.8c0.7-0.5,1.3-1.1,2.1-1.7c1.4-1.1,2.9-2.2,4.3-3.2   c3.1-2.2,6-4.1,8.9-5.8c3.3-1.9,6.3-3.4,9-4.5c0.5-0.2,1-0.4,1.5-0.5C50.1,31.5,50.1,31.8,50.1,32z"></path><path d="M57.1,18.3c-2.3-0.2-4.5,0.1-6.7,0.4c-2.1,0.4-4.1,0.9-6.1,1.6c-3.9,1.3-7.6,3-11.1,4.8c-3.5,1.8-6.9,3.9-10.2,6   c-1.6,1.1-3.3,2.2-4.9,3.3c0,0-0.1,0.1-0.1,0.1L17.6,34c-0.4-0.6-0.9-1.2-1.4-1.9c-0.9-1.2-1.9-2.4-3-3.5c-0.5-0.6-1.1-1.1-1.7-1.7   c-0.3-0.3-0.6-0.5-0.9-0.8l-0.5-0.4l-0.3-0.2l-0.3-0.3c-1.7-1.4-4.2-1.2-5.5,0.5s-1.2,4.2,0.5,5.5c0,0,0,0.1,0.1,0.1l0.1,0.1   L5,31.9c0.2,0.2,0.4,0.4,0.6,0.7C6,33,6.4,33.5,6.7,34c0.7,1,1.4,2.1,2,3.2c0.3,0.6,0.6,1.1,0.9,1.7l0.4,0.8l0.4,0.9   c0.3,0.6,0.5,1.2,0.8,1.7c0.2,0.6,0.5,1.2,0.7,1.8c0.1,0.2,0.2,0.5,0.3,0.7c1.3,2.3,4.3,3,6.6,1.7l1-0.6l0,0l0.5-0.4l0.5-0.4   l1.1-0.9c0.7-0.6,1.4-1.2,2.1-1.7c1.4-1.1,2.9-2.2,4.4-3.3c3-2.2,6-4.2,9.2-6c3.1-1.8,6.3-3.5,9.6-4.8c1.6-0.6,3.3-1.2,4.9-1.5   c1.6-0.4,3.2-0.6,4.7-0.6l0.1,0c2.1,0,3.8-1.6,4-3.7C60.9,20.3,59.3,18.4,57.1,18.3z"></path></g></svg>