<svg height='100px' width='100px'  fill="#00A0DD" xmlns:dc="http://purl.org/dc/elements/1.1/" xmlns:cc="http://creativecommons.org/ns#" xmlns:rdf="http://www.w3.org/1999/02/22-rdf-syntax-ns#" xmlns:svg="http://www.w3.org/2000/svg" xmlns="http://www.w3.org/2000/svg" xmlns:sodipodi="http://sodipodi.sourceforge.net/DTD/sodipodi-0.dtd" xmlns:inkscape="http://www.inkscape.org/namespaces/inkscape" viewBox="0 0 16.933333 16.933334" version="1.1" x="0px" y="0px"><g transform="translate(0,-280.06665)"><path style="color:#000000;font-style:normal;font-variant:normal;font-weight:normal;font-stretch:normal;font-size:medium;line-height:normal;font-family:sans-serif;font-variant-ligatures:normal;font-variant-position:normal;font-variant-caps:normal;font-variant-numeric:normal;font-variant-alternates:normal;font-feature-settings:normal;text-indent:0;text-align:start;text-decoration:none;text-decoration-line:none;text-decoration-style:solid;text-decoration-color:#000000;letter-spacing:normal;word-spacing:normal;text-transform:none;writing-mode:lr-tb;direction:ltr;text-orientation:mixed;dominant-baseline:auto;baseline-shift:baseline;text-anchor:start;white-space:normal;shape-padding:0;clip-rule:nonzero;display:inline;overflow:visible;visibility:visible;opacity:1;isolation:auto;mix-blend-mode:normal;color-interpolation:sRGB;color-interpolation-filters:linearRGB;solid-color:#000000;solid-opacity:1;vector-effect:none;fill:#00A0DD;fill-opacity:1;fill-rule:nonzero;stroke:none;stroke-width:0.5291667;stroke-linecap:butt;stroke-linejoin:round;stroke-miterlimit:4;stroke-dasharray:none;stroke-dashoffset:0;stroke-opacity:1;color-rendering:auto;image-rendering:auto;shape-rendering:auto;text-rendering:auto;enable-background:accumulate" d="m 8.4563293,280.59478 a 0.26460982,0.26460982 0 0 0 -0.107487,0.0295 c 0,0 -3.1421913,1.56734 -7.0605513,2.08979 a 0.26460982,0.26460982 0 0 0 -0.2304759,0.26407 v 5.55418 c 0,3.40254 1.8623279,5.42086 3.6989993,6.54327 1.8366793,1.12241 3.6721259,1.39268 3.6721259,1.39268 a 0.26460982,0.26460982 0 0 0 0.07596,0 c 0,0 1.8354557,-0.27027 3.6721277,-1.39268 1.836668,-1.12241 3.69693,-3.14073 3.69693,-6.54327 v -5.55418 a 0.26460982,0.26460982 0 0 0 -0.22841,-0.26407 c -3.91836,-0.52245 -7.0605477,-2.08979 -7.0605477,-2.08979 a 0.26460982,0.26460982 0 0 0 -0.128675,-0.0295 z m -0.0036,1.14257 a 0.26460982,0.26460982 0 0 1 0.128157,0.0258 c 0.518919,0.24726 2.8261467,1.19299 6.0197867,1.77301 a 0.26460982,0.26460982 0 0 1 0.217043,0.262 v 4.73615 c 0,2.03875 -0.760225,3.59172 -1.930117,4.70152 -1.169879,1.1098 -2.73539,1.78423 -4.3630397,2.14457 a 0.26460982,0.26460982 0 0 1 -0.11524,0 c -1.6276598,-0.36034 -3.1936968,-1.03477 -4.3635758,-2.14457 -1.1698923,-1.1098 -1.9295982,-2.66277 -1.9295982,-4.70152 v -4.73615 a 0.26460982,0.26460982 0 0 1 0.2191068,-0.262 c 3.1936397,-0.58002 5.4982852,-1.52575 6.0172042,-1.77301 a 0.26460982,0.26460982 0 0 1 0.09974,-0.0253 0.26460982,0.26460982 0 0 0 5.29e-4,-5.2e-4 z m -0.515207,2.03346 c -0.146579,0 -0.264583,0.11801 -0.264583,0.26459 0,0.14658 0.118004,0.26458 0.264583,0.26458 h 0.264584 v 0.80667 c -0.749385,0.0573 -1.4315498,0.35446 -1.9704241,0.81649 l -0.5710237,-0.57103 0.1865524,-0.18655 c 0.1036479,-0.10365 0.1036479,-0.27049 0,-0.37414 -0.1036479,-0.10364 -0.2704915,-0.10364 -0.3741367,0 l -0.7482761,0.74828 c -0.1036452,0.10364 -0.1036452,0.27049 0,0.37414 0.1036479,0.10364 0.2704915,0.10364 0.3741367,0 l 0.1865524,-0.18656 0.5710264,0.57103 c -0.462026,0.53887 -0.759198,1.22104 -0.8164883,1.97042 H 4.2333309 v -0.26458 c 0,-0.14658 -0.1180041,-0.26459 -0.2645833,-0.26459 -0.1465792,0 -0.2645833,0.11801 -0.2645833,0.26459 v 1.05833 c 0,0.14658 0.1180041,0.26458 0.2645833,0.26458 0.1465792,0 0.2645833,-0.118 0.2645833,-0.26458 v -0.26458 h 0.8066696 c 0.057655,0.74937 0.3551529,1.43173 0.8175202,1.97042 L 5.285981,291.33986 5.09891,291.15279 c -0.1036452,-0.10365 -0.2704888,-0.10365 -0.3741367,0 -0.1036452,0.10365 -0.1036452,0.27049 0,0.37414 l 0.7482761,0.74828 c 0.1036452,0.10364 0.2704888,0.10364 0.3741367,0 0.1036479,-0.10365 0.1036479,-0.2705 0,-0.37414 l -0.1865524,-0.18655 0.5720582,-0.57155 c 0.5387023,0.46149 1.2205204,0.75821 1.9693894,0.81546 v 0.80822 h -0.264584 c -0.146579,0 -0.264583,0.118 -0.264583,0.26458 0,0.14658 0.118004,0.26458 0.264583,0.26458 h 1.058334 c 0.146579,0 0.264583,-0.118 0.264583,-0.26458 0,-0.14658 -0.118004,-0.26458 -0.264583,-0.26458 h -0.264584 v -0.80822 c 0.748729,-0.0576 1.4303957,-0.35481 1.9688737,-0.81649 l 0.572574,0.57258 -0.186553,0.18655 c -0.103648,0.10364 -0.103648,0.27049 0,0.37414 0.103648,0.10364 0.270492,0.10364 0.374137,0 l 0.748276,-0.74828 c 0.103645,-0.10365 0.103645,-0.27049 0,-0.37414 -0.103648,-0.10365 -0.270491,-0.10365 -0.374137,0 l -0.186552,0.18655 -0.572574,-0.57257 c 0.461682,-0.53848 0.75888,-1.22014 0.816485,-1.96887 h 0.80822 v 0.26458 c 0,0.14658 0.118005,0.26458 0.264584,0.26458 0.146579,0 0.264583,-0.118 0.264583,-0.26458 v -1.05833 c 0,-0.14658 -0.118004,-0.26459 -0.264583,-0.26459 -0.146579,0 -0.264584,0.11801 -0.264584,0.26459 v 0.26458 h -0.80822 c -0.05725,-0.74887 -0.35397,-1.43069 -0.815453,-1.96939 l 0.571542,-0.57206 0.186552,0.18656 c 0.103646,0.10364 0.270489,0.10364 0.374137,0 0.103645,-0.10365 0.103645,-0.2705 0,-0.37414 l -0.748276,-0.74828 c -0.103645,-0.10364 -0.270489,-0.10364 -0.374137,0 -0.103648,0.10365 -0.103648,0.27049 0,0.37414 l 0.187069,0.18707 -0.57154,0.57154 c -0.538694,-0.46237 -1.2210467,-0.75986 -1.9704237,-0.81752 v -0.80667 h 0.264584 c 0.146579,0 0.264583,-0.118 0.264583,-0.26458 0,-0.14658 -0.118004,-0.26459 -0.264583,-0.26459 z m 1.058334,2.64584 a 0.26458336,0.26458336 0 0 1 0.264583,0.26458 0.26458336,0.26458336 0 0 1 -0.264583,0.26458 0.26458336,0.26458336 0 0 1 -0.264584,-0.26458 0.26458336,0.26458336 0 0 1 0.264584,-0.26458 z m -1.586466,0.26458 c 0.581369,0 1.056264,0.47697 1.056264,1.05833 0,0.58137 -0.474895,1.05834 -1.056264,1.05834 -0.5813716,0 -1.0588519,-0.47697 -1.0588519,-1.05834 0,-0.58136 0.4774803,-1.05833 1.0588519,-1.05833 z m 2.380731,0.52917 c 0.4352397,0 0.7932347,0.35747 0.7932347,0.79271 0,0.43525 -0.357995,0.79479 -0.7932347,0.79479 -0.435239,0 -0.794781,-0.35954 -0.794781,-0.79479 0,-0.43524 0.359542,-0.79271 0.794781,-0.79271 z m -2.9109322,2.11666 a 0.26458336,0.26458336 0 0 1 0.2645833,0.26459 0.26458336,0.26458336 0 0 1 -0.2645833,0.26458 0.26458336,0.26458336 0 0 1 -0.2645833,-0.26458 0.26458336,0.26458336 0 0 1 0.2645833,-0.26459 z m 3.1749999,0 a 0.26458336,0.26458336 0 0 1 0.264583,0.26459 0.26458336,0.26458336 0 0 1 -0.264583,0.26458 0.26458336,0.26458336 0 0 1 -0.2645827,-0.26458 0.26458336,0.26458336 0 0 1 0.2645827,-0.26459 z m -1.5885347,5.3e-4 c 0.435243,0 0.795301,0.35748 0.795301,0.79272 0,0.43524 -0.360058,0.7953 -0.795301,0.7953 -0.435239,0 -0.792715,-0.36006 -0.792715,-0.7953 0,-0.43524 0.357476,-0.79272 0.792715,-0.79272 z"></path></g></svg>