<svg height='100px' width='100px'  fill="#00a0dd" xmlns="http://www.w3.org/2000/svg" xmlns:xlink="http://www.w3.org/1999/xlink" viewBox="0 0 100 100" version="1.1" x="0px" y="0px"><title>Artboard</title><desc>Created with Sketch.</desc><g stroke="none" stroke-width="1" fill="none" fill-rule="evenodd"><path d="M75.961,47.832 L87.7742546,68.2920759 C90.2975607,72.6625701 88.8001187,78.2510995 84.4296245,80.7744055 C83.0405186,81.5764061 81.464776,81.9986251 79.8607748,81.9986251 L60.999,81.998 L61,88 L49,76 L54.999,70 L55,69.998 L55.001,69.998 L61,64 L60.999,69.998 L74.9031248,69.9986251 L65.569,53.831 L75.961,47.832 Z M33,44.8038476 L37.3923048,61.1961524 L31.98,58.071 L25.0953494,69.9986251 L45,69.998 L45,81.998 L20.1376995,81.9986251 C15.0910874,81.9986251 11,77.9075377 11,72.8609256 C11,71.2569243 11.422219,69.6811817 12.2242196,68.2920759 L21.588,52.072 L16.6076952,49.1961524 L33,44.8038476 Z M54.5680869,13.2257454 C55.9571927,14.027746 57.1107164,15.1812697 57.912717,16.5703755 L67.945,33.948 L73.3923048,30.8038476 L69,47.1961524 L60.844,45.011 L60.569,45.17 L60.409,44.894 L52.6076952,42.8038476 L57.553,39.948 L49.9992371,26.8638263 L39.429,45.17 L29.037,39.17 L42.0857572,16.5703755 C44.6090633,12.1998813 50.1975926,10.7024393 54.5680869,13.2257454 Z" fill="#00a0dd" fill-rule="nonzero"></path></g></svg>