<svg height='100px' width='100px'  fill="#00a0dd" xmlns:x="http://ns.adobe.com/Extensibility/1.0/" xmlns:i="http://ns.adobe.com/AdobeIllustrator/10.0/" xmlns:graph="http://ns.adobe.com/Graphs/1.0/" xmlns="http://www.w3.org/2000/svg" xmlns:xlink="http://www.w3.org/1999/xlink" version="1.1" x="0px" y="0px" viewBox="0 0 100 100" style="enable-background:new 0 0 100 100;" xml:space="preserve"><g><g i:extraneous="self"><g><path d="M94.9,50.8l-9.4-1.3l-3.8-9.7c-1-2.6-3.5-4.2-6.6-4.2H64.2c-0.9,0-1.7,0.6-1.8,1.5L58.8,57c-0.2,0.9-0.9,1.5-1.8,1.5     l-47.8,0c-0.9,0-1.7,0.6-1.8,1.5l-1,5.7c-0.2,1.1,0.7,2.2,1.8,2.2h3.9c-0.4,4.3,2.6,7.7,6.9,7.7s8.6-3.4,9.7-7.7h43.5     c-0.4,4.3,2.6,7.7,6.9,7.7c4.4,0,8.6-3.4,9.7-7.7h4.7c0.9,0,1.7-0.6,1.8-1.5l2.1-11.9C97.8,52.6,96.7,51,94.9,50.8z M24.9,67.2     c-0.4,2.4-2.7,4.4-5.2,4.4c-2.4,0-4.1-2-3.6-4.4c0.4-2.4,2.7-4.4,5.2-4.4C23.7,62.8,25.4,64.8,24.9,67.2z M66.2,49.2l1.5-8.4h6.4     c1.1,0,2.1,0.6,2.5,1.6l2.7,6.8H66.2z M85,67.2c-0.4,2.4-2.7,4.4-5.2,4.4s-4.1-2-3.6-4.4c0.4-2.4,2.7-4.4,5.2-4.4     S85.4,64.8,85,67.2z"></path><path d="M56.6,54.3l4.9-27.7c0.2-1.1-0.7-2.2-1.8-2.2l-47.7,0c-1.7,0-3.1,1.4-3.1,3.1v0c0,1.7,1.4,3.1,3.1,3.1h0.5l4.7,0     c1.7,0,3.1,1.4,3.1,3.1c0,1.7-1.4,3.1-3.1,3.1H8.8c-1.7,0-3.1,1.4-3.1,3.1v0c0,1.7,1.4,3.1,3.1,3.1H14c1.7,0,3.1,1.4,3.1,3.1     c0,1.7-1.4,3.1-3.1,3.2H5.6c-1.7,0-3.1,1.4-3.1,3.1v0c0,1.7,1.4,3.1,3.1,3.1l49.1,0C55.7,55.9,56.5,55.2,56.6,54.3z"></path></g></g></g></svg>