<svg height='100px' width='100px'  fill="#00a0dd" xmlns="http://www.w3.org/2000/svg" xmlns:xlink="http://www.w3.org/1999/xlink" version="1.1" x="0px" y="0px" viewBox="0 0 512 512" style="enable-background:new 0 0 512 512;" xml:space="preserve"><g><g><g><path d="M396,426H116c-5.523,0-10-4.478-10-10V96c0-5.523,4.477-10,10-10h280c5.522,0,10,4.477,10,10v320     C406,421.522,401.522,426,396,426z M126,406h260V106H126V406z"></path></g><g><path d="M377,496H135c-15.991,0-29-13.01-29-29v-51c0-5.522,4.477-10,10-10h280c5.522,0,10,4.478,10,10v51     C406,482.99,392.99,496,377,496z M126,426v41c0,4.963,4.038,9,9,9h242c4.963,0,9-4.037,9-9v-41H126z"></path></g><g><path d="M396,106H116c-5.523,0-10-4.477-10-10V45c0-15.991,13.009-29,29-29h242c15.99,0,29,13.009,29,29v51     C406,101.523,401.522,106,396,106z M126,86h260V45c0-4.962-4.037-9-9-9H135c-4.962,0-9,4.038-9,9V86z"></path></g><rect x="246" y="436" width="30" height="30"></rect><circle cx="261" cy="61" r="15"></circle><g><path d="M187.818,211.455c-18.046,0-32.728-14.681-32.728-32.727S169.772,146,187.818,146c18.045,0,32.727,14.682,32.727,32.728     S205.864,211.455,187.818,211.455z M187.818,166c-7.018,0-12.728,5.709-12.728,12.728c0,7.018,5.709,12.727,12.728,12.727     c7.018,0,12.727-5.709,12.727-12.727C200.545,171.709,194.836,166,187.818,166z"></path></g><g><path d="M187.818,366c-18.046,0-32.728-14.682-32.728-32.728s14.682-32.727,32.728-32.727c18.045,0,32.727,14.681,32.727,32.727     S205.864,366,187.818,366z M187.818,320.546c-7.018,0-12.728,5.709-12.728,12.727S180.8,346,187.818,346     c7.018,0,12.727-5.71,12.727-12.728S194.836,320.546,187.818,320.546z"></path></g><g><path d="M324.182,293.272c-18.046,0-32.728-14.681-32.728-32.727s14.682-32.728,32.728-32.728s32.728,14.682,32.728,32.728     S342.228,293.272,324.182,293.272z M324.182,247.818c-7.018,0-12.728,5.709-12.728,12.728c0,7.018,5.71,12.727,12.728,12.727     s12.728-5.709,12.728-12.727C336.909,253.528,331.199,247.818,324.182,247.818z"></path></g><g><path d="M210.554,329.638c-3.153,0-6.256-1.487-8.201-4.267c-3.167-4.524-2.067-10.76,2.458-13.927L284.017,256l-79.206-55.444     c-4.525-3.167-5.625-9.402-2.458-13.927c3.167-4.525,9.403-5.624,13.927-2.458l90.909,63.636     c2.674,1.872,4.266,4.929,4.266,8.192c0,3.263-1.592,6.321-4.266,8.192l-90.909,63.637     C214.534,329.051,212.534,329.638,210.554,329.638z"></path></g></g></g></svg>