<svg height='100px' width='100px'  fill="#00a0dd" xmlns="http://www.w3.org/2000/svg" xmlns:xlink="http://www.w3.org/1999/xlink" version="1.1" x="0px" y="0px" viewBox="0 0 512 512" style="enable-background:new 0 0 512 512;" xml:space="preserve"><g><path d="M453.475,106.468c-17.762,0-32.226,14.464-32.226,32.14l-1.204,86.657c-5.163-3.801-11.392-5.769-17.872-6.028   c-7.953,0.072-15.363,3.27-20.875,8.995l-68.606,71.334c-16.748,17.391-25.986,40.279-25.986,64.452v46.704H275.74   c-3.227,0-5.854,2.627-5.854,5.854v56.57c0,3.227,2.627,5.854,5.854,5.854h129.96c3.227,0,5.854-2.627,5.854-5.854v-56.57   c0-3.227-2.627-5.854-5.854-5.854h-14.021v-19.304l85.098-87.982c5.754-5.939,8.924-13.779,8.924-22.06V138.694   C485.7,120.932,471.236,106.468,453.475,106.468z M399.846,422.43v44.863H281.594V422.43H399.846z M473.993,281.376   c0,5.226-1.984,10.18-5.611,13.921l-86.754,89.681c-1.056,1.099-1.656,2.555-1.656,4.069v21.674h-81.557v-46.703   c0-21.132,8.053-41.135,22.702-56.342l68.606-71.334c3.312-3.441,7.782-5.368,12.565-5.411c4.24-0.128,9.281,1.799,12.665,5.183   c6.811,6.797,6.868,17.934,0.157,24.83l-43.92,45.034c-1.029,1.042-1.613,2.442-1.656,3.898l-0.742,23.644   c-0.114,3.227,2.427,5.926,5.654,6.025c0.072,0.014,0.128,0.014,0.186,0.014c3.141,0,5.739-2.499,5.84-5.669l0.671-21.374   l42.335-43.405c6.476-6.642,9.037-15.651,7.943-24.262c0.003-0.068,0.066-0.099,0.067-0.168l1.47-105.987   c0-11.323,9.195-20.518,20.518-20.518c11.323,0,20.518,9.195,20.518,20.518v142.682H473.993z"></path><path d="M236.26,410.722h-10.966v-46.703c0-24.173-9.224-47.061-25.972-64.452l-68.606-71.334   c-5.526-5.726-12.936-8.924-20.889-8.995c-6.665,0.129-12.772,2.176-17.87,6.006l-1.192-86.549   c0-17.762-14.464-32.226-32.241-32.226c-17.762,0-32.226,14.464-32.226,32.226v142.682c0,8.267,3.17,16.105,8.939,22.06   l85.098,87.982v19.304h-14.021c-3.227,0-5.854,2.627-5.854,5.854v56.57c0,3.227,2.627,5.854,5.854,5.854H236.26   c3.227,0,5.854-2.627,5.854-5.854v-56.57C242.115,413.349,239.488,410.722,236.26,410.722z M43.634,295.298   c-3.627-3.755-5.626-8.696-5.626-13.921V138.694c0-11.323,9.195-20.518,20.518-20.518s20.532,9.195,20.532,20.604l1.456,105.901   c0.002,0.099,0.054,0.183,0.06,0.28c-1.059,8.574,1.503,17.531,7.949,24.15l42.335,43.405l0.685,21.374   c0.099,3.227,2.713,6.24,6.025,5.654c3.227-0.099,5.768-2.798,5.654-6.025l-0.757-23.644c-0.043-1.456-0.629-2.856-1.656-3.898   l-43.92-45.034c-6.71-6.896-6.64-18.033,0.171-24.83c3.341-3.341,7.768-5.183,12.494-5.183c0.057,0,0.114,0,0.157,0   c4.798,0.043,9.252,1.971,12.579,5.411l68.606,71.334c14.635,15.192,22.688,35.21,22.688,56.342v46.704h-81.543v-21.674   c0-1.514-0.6-2.97-1.656-4.069L43.634,295.298z M230.406,467.293H112.168V422.43h118.238V467.293z"></path><path d="M300.099,227.29c15.349,0,36.709-2.755,54.299-15.278c30.641-21.831,36.967-64.209,37.223-66.008   c0.429-3.07-1.627-5.954-4.683-6.554c-1.785-0.328-43.848-8.195-74.532,13.607c-26.818,19.12-35.008,53.956-36.808,63.557   l-14.38,10.95v-56.913c5.063-5.181,30.709-33.149,30.327-67.839c-0.414-37.623-31.569-67.022-32.897-68.249   c-2.285-2.113-5.825-2.085-8.053,0.086c-1.299,1.256-31.826,31.327-31.426,68.95v0.014c0.364,31.944,22.749,57.777,30.341,65.643   v57.547l-13.097-9.969c-1.804-9.617-9.997-44.435-36.806-63.548c-30.67-21.817-72.747-13.936-74.532-13.607   c-3.056,0.6-5.112,3.483-4.683,6.554c0.257,1.799,6.582,44.162,37.223,66.008c17.591,12.522,38.965,15.264,54.314,15.264   c8.017,0,14.233-0.74,17.568-1.235l20.012,15.234v86.32c0,3.227,2.627,5.854,5.854,5.854s5.854-2.627,5.854-5.854v-85.556   l21.304-16.222C285.859,226.543,292.075,227.29,300.099,227.29z M319.202,162.596c20.318-14.492,47.76-13.664,59.669-12.451   c-2.741,11.608-10.923,37.852-31.269,52.33c-16.427,11.705-37.381,13.378-51.147,12.961l21.391-16.288   c2.57-1.957,3.07-5.626,1.114-8.195c-1.971-2.584-5.654-3.041-8.195-1.114l-20.023,15.246   C295.029,192.021,303.439,173.812,319.202,162.596z M194.169,199.377l21.416,16.302c-13.743,0.436-34.683-1.233-51.172-12.976   c-20.347-14.478-28.527-40.722-31.269-52.33c11.923-1.214,39.351-2.042,59.669,12.451c15.756,11.222,24.167,29.424,28.457,42.48   l-20.018-15.238c-2.541-1.913-6.211-1.47-8.195,1.114C191.099,193.75,191.598,197.42,194.169,199.377z M255.364,116.491   c-3.227,0-5.854,2.627-5.854,5.854v28.762c-8.276-10.981-18.419-28.293-18.632-47.632c-0.268-24.97,16.105-47.039,23.872-56.091   c7.968,8.881,24.815,30.583,25.087,55.557c0.231,20.209-10.417,38.397-18.619,49.443v-30.039   C261.218,119.119,258.591,116.491,255.364,116.491z"></path></g></svg>