<svg height='100px' width='100px'  fill="#00a0dd" xmlns:x="http://ns.adobe.com/Extensibility/1.0/" xmlns:i="http://ns.adobe.com/AdobeIllustrator/10.0/" xmlns:graph="http://ns.adobe.com/Graphs/1.0/" xmlns="http://www.w3.org/2000/svg" xmlns:xlink="http://www.w3.org/1999/xlink" version="1.1" x="0px" y="0px" viewBox="0 0 100 100" style="enable-background:new 0 0 100 100;" xml:space="preserve"><g><g i:extraneous="self"><g><path d="M97.5,52.4c0-3.9-3.2-7.1-7.1-7.1H75.7c1.4-3,3-7.6,3-12.6c0-4.7-2.5-8.4-7.1-10.5c-1.8-0.8-3.8-0.8-5.5,0     c-1.7,0.8-3,2.4-3.5,4.2l-0.9,3.4c-1.6,6.2-5,11.6-9.5,15.2c-0.6,0.4-1.1,0.8-1.7,1.2c-1.1-1.8-3-3.1-5.3-3.2     c0.5-1.7,0.7-3.5,0.7-5.4V23.9c0-1.2-0.9-2.2-2.1-2.3c-13.4-1.4-17.3-9-17.5-9.4c-0.4-0.8-1.2-1.3-2.1-1.3     c-0.9-0.1-1.7,0.5-2.1,1.3c-0.2,0.3-4.1,8-17.5,9.4c-1.2,0.1-2.1,1.1-2.1,2.3v13.8c0,16.5,19.8,26.9,20.6,27.3     c0.3,0.2,0.7,0.3,1.1,0.3c0.4,0,0.7-0.1,1.1-0.3c0.2-0.1,1.3-0.7,3-1.8v19.4c0,3.5,2.9,6.4,6.4,6.4H45c2.6,0,4.9-1.6,5.9-3.8     c6.4,1.8,12.3,2.7,18.7,2.7h16.2c3.9,0,7.1-3.2,7.1-7.1c0-1.3-0.3-2.5-0.9-3.5c2-1.3,3.3-3.5,3.3-6c0-1.3-0.3-2.5-0.9-3.5     c2-1.3,3.3-3.5,3.3-6c0-1.8-0.7-3.5-1.8-4.7C96.8,55.9,97.5,54.3,97.5,52.4z M24.2,60.3c-3.9-2.3-17-10.9-17-22.6V25.9     c9.3-1.4,14.5-5.7,17-8.7c2.6,3,7.7,7.2,17,8.7v11.8C41.3,49.4,28.1,58,24.2,60.3z M46.7,82.7c0,1-0.8,1.8-1.8,1.8H34.7     c-1,0-1.8-0.8-1.8-1.8V59.9c3.7-2.9,7.8-7.1,10.4-12.2H45c1,0,1.8,0.8,1.8,1.8V82.7z M86,59.5h4.5c1.3,0,2.4,1.1,2.4,2.4     c0,1.3-1.1,2.4-2.4,2.4h-5.3c-1.3,0-2.3,1-2.3,2.3s1,2.3,2.3,2.3h3c1.3,0,2.4,1.1,2.4,2.4s-1.1,2.4-2.4,2.4h-4.7     c-1.3,0-2.3,1-2.3,2.3c0,1.3,1,2.3,2.3,2.3h2.3c1.3,0,2.4,1.1,2.4,2.4s-1.1,2.4-2.4,2.4H69.5c-6.2,0-11.9-0.9-18.1-2.6V51.2     c1.2-0.7,2.5-1.5,3.7-2.4c5.3-4.2,9.3-10.5,11.1-17.7l0.9-3.4c0.2-0.7,0.7-1,1-1.2c0.3-0.1,0.9-0.3,1.6,0c3,1.4,4.4,3.5,4.4,6.3     c0,7.1-4.1,13.6-4.1,13.7c-0.5,0.7-0.5,1.6-0.1,2.4c0.4,0.7,1.2,1.2,2,1.2h18.5c1.3,0,2.4,1.1,2.4,2.4s-1.1,2.4-2.4,2.4H86     c-1.3,0-2.3,1-2.3,2.3C83.6,58.5,84.7,59.5,86,59.5z"></path><circle cx="39.8" cy="78.1" r="3"></circle><path d="M30.1,31.5l-8.2,8.2l-3.5-3.5c-0.9-0.9-2.4-0.9-3.3,0c-0.9,0.9-0.9,2.4,0,3.3l5.2,5.2c0.4,0.4,1,0.7,1.6,0.7     s1.2-0.2,1.6-0.7l9.9-9.9c0.9-0.9,0.9-2.4,0-3.3S31,30.6,30.1,31.5z"></path></g></g></g></svg>