<svg height='100px' width='100px'  fill="#00a0dd" xmlns:x="http://ns.adobe.com/Extensibility/1.0/" xmlns:i="http://ns.adobe.com/AdobeIllustrator/10.0/" xmlns:graph="http://ns.adobe.com/Graphs/1.0/" xmlns="http://www.w3.org/2000/svg" xmlns:xlink="http://www.w3.org/1999/xlink" version="1.1" x="0px" y="0px" viewBox="0 0 100 100" style="enable-background:new 0 0 100 100;" xml:space="preserve"><g><g i:extraneous="self"><g><path d="M5273.1,2400.1v-2c0-2.8-5-4-9.7-4s-9.7,1.3-9.7,4v2c0,1.8,0.7,3.6,2,4.9l5,4.9c0.3,0.3,0.4,0.6,0.4,1v6.4     c0,0.4,0.2,0.7,0.6,0.8l2.9,0.9c0.5,0.1,1-0.2,1-0.8v-7.2c0-0.4,0.2-0.7,0.4-1l5.1-5C5272.4,2403.7,5273.1,2401.9,5273.1,2400.1z      M5263.4,2400c-4.8,0-7.4-1.3-7.5-1.8v0c0.1-0.5,2.7-1.8,7.5-1.8c4.8,0,7.3,1.3,7.5,1.8C5270.7,2398.7,5268.2,2400,5263.4,2400z"></path><path d="M5268.4,2410.3c-0.6,0-1,0.4-1,1c0,0.6,0.4,1,1,1h4.3c0.6,0,1-0.4,1-1c0-0.6-0.4-1-1-1H5268.4z"></path><path d="M5272.7,2413.7h-4.3c-0.6,0-1,0.4-1,1c0,0.6,0.4,1,1,1h4.3c0.6,0,1-0.4,1-1C5273.7,2414.1,5273.3,2413.7,5272.7,2413.7z"></path><path d="M5272.7,2417h-4.3c-0.6,0-1,0.4-1,1c0,0.6,0.4,1,1,1h4.3c0.6,0,1-0.4,1-1C5273.7,2417.5,5273.3,2417,5272.7,2417z"></path></g><g><path d="M40,38.9c0-1.6-1.3-2.9-2.9-2.9h-5.7l-4.6-5.1c-1.3-1.5-3.2-2.3-5.2-2.3h-5.2c-2.3,0-4.5,1.1-5.8,3.1l-7.5,11     c-0.7,1-0.8,2.3-0.1,3.3c0.6,0.9,1.5,1.3,2.4,1.3c0.9,0,1.8-0.4,2.4-1.3l3.9-5.7v29c0,1.4,1,2.8,2.4,3c1.8,0.3,3.4-1.1,3.4-2.9     v-18h2.8v17.8c0,1.4,1,2.8,2.4,3c1.8,0.3,3.4-1.1,3.4-2.9V38.6l2,2.2c0.6,0.6,1.3,1,2.2,1h6.9C38.7,41.8,40,40.5,40,38.9z"></path><circle cx="18.8" cy="20.5" r="6.4"></circle><path d="M45.3,75.5h-6.5c-3.6,0-6.4,2.9-6.4,6.4v4.3c0,0.8,0.6,1.4,1.4,1.4h16.6c0.8,0,1.4-0.6,1.4-1.4v-4.3     C51.7,78.3,48.8,75.5,45.3,75.5z"></path><circle cx="42" cy="68.1" r="5.5"></circle><path d="M68.2,75.5h-6.5c-3.6,0-6.4,2.9-6.4,6.4v4.3c0,0.8,0.6,1.4,1.4,1.4h16.6c0.8,0,1.4-0.6,1.4-1.4v-4.3     C74.6,78.3,71.7,75.5,68.2,75.5z"></path><circle cx="64.9" cy="68.1" r="5.5"></circle><path d="M91.1,75.5h-6.5c-3.6,0-6.4,2.9-6.4,6.4v4.3c0,0.8,0.6,1.4,1.4,1.4h16.6c0.8,0,1.4-0.6,1.4-1.4v-4.3     C97.5,78.3,94.6,75.5,91.1,75.5z"></path><circle cx="87.8" cy="68.1" r="5.5"></circle><path d="M44.9,38.9c0,4.3-3.5,7.8-7.8,7.8h-3.2V55c0,1.4,1.1,2.5,2.5,2.5h57.4c1.4,0,2.5-1.1,2.5-2.5V14.9c0-1.4-1.1-2.5-2.5-2.5     H36.4c-1.4,0-2.5,1.1-2.5,2.5v16.2h3.2C41.4,31.1,44.9,34.6,44.9,38.9z M56.3,22h27.2c1.4,0,2.5,1.1,2.5,2.5     c0,1.4-1.1,2.5-2.5,2.5H56.3c-1.4,0-2.5-1.1-2.5-2.5C53.9,23.1,55,22,56.3,22z M56.3,32.5h27.2c1.4,0,2.5,1.1,2.5,2.5     s-1.1,2.5-2.5,2.5H56.3c-1.4,0-2.5-1.1-2.5-2.5S55,32.5,56.3,32.5z M56.3,43h16.2c1.4,0,2.5,1.1,2.5,2.5s-1.1,2.5-2.5,2.5H56.3     c-1.4,0-2.5-1.1-2.5-2.5S55,43,56.3,43z"></path></g></g></g></svg>