<svg height='100px' width='100px'  fill="#00a0dd" xmlns="http://www.w3.org/2000/svg" xmlns:xlink="http://www.w3.org/1999/xlink" version="1.1" x="0px" y="0px" viewBox="0 0 66 66" enable-background="new 0 0 66 66" xml:space="preserve"><g><path d="M13.8613262,56.4414063c3.8093262,2.1690063,13.7653198,7.567688,18.4951153,7.5668945   c0.1074219,0,0.2128906-0.0029297,0.3144531-0.0083008c8.3291016-0.4638672,27.9667969-14.1816406,29.2666016-15.0961914   c1.2734375-0.734375,2.0625-2.0932617,2.0625-3.559082c0-1.418457-0.7197266-2.7182617-1.9248047-3.4765625   c-1.2167969-0.7641602-2.7167969-0.8491211-4.0107422-0.2275391l-12.1191406,5.8125   c-0.0595703-2.2539063-1.921875-4.0693359-4.203125-4.0693359l-6.9599609,0.0019531   c-3.4374981-2.9638672-7.8271465-4.7792969-11.8183575-4.8735352c-3.925415-0.0930786-7.449585-0.1191406-9.1025391-0.1264648   v-1.9736328H1.999998v22.7416992h11.8613281V56.4414063z M13.8642559,40.3857422   c1.6523438,0.0073242,5.1582031,0.0336914,9.0527344,0.1254883c3.6416016,0.0864258,7.6875,1.8134766,10.8212872,4.6196289   c0.1835938,0.1640625,0.4208984,0.2548828,0.6669922,0.2548828l7.3369141-0.0019531   c1.2158203,0,2.2050781,0.9785156,2.2050781,2.1811523c0,0.4223633-0.1220703,0.8173828-0.3330078,1.1518555   c-0.0107422,0.015625-0.0215073,0.0317383-0.03125,0.0483398c-0.3945313,0.5908203-1.0722656,0.9814453-1.8408203,0.9814453   H27.5664043c-0.5527344,0-1,0.4477539-1,1s0.4472656,1,1,1h14.1757793c1.3720703,0,2.5927734-0.6572266,3.3613281-1.6708984   l13.8271484-6.6318359c0.6708984-0.3242188,1.4482422-0.2792969,2.0791016,0.1176758   c0.6298828,0.3955078,0.9902344,1.0454102,0.9902344,1.7832031c0,0.7607422-0.4160156,1.4658203-1.0869141,1.840332   c-0.0302734,0.0170898-0.0595703,0.0356445-0.0878906,0.0556641c-0.203125,0.1430664-20.3984375,14.3242188-28.265625,14.762207   c-3.9951153,0.2133789-14.4023418-5.3515625-18.6953106-7.8666992V40.3857422z M11.8613262,57.1538086H3.9999979V38.4121094   h7.8613281V57.1538086z"></path><path d="M7.930479,54.696228c0.9700928,0,1.7501221-0.7901001,1.7501221-1.7601318   c0-0.960083-0.7800293-1.7401123-1.7501221-1.7401123c-0.960022,0-1.7501221,0.7800293-1.7501221,1.7401123   C6.180357,53.9061279,6.9704571,54.696228,7.930479,54.696228z"></path><path d="M31.9999981,35.6933594c9.2910137,0,16.850584-7.559082,16.850584-16.8505859S41.2910118,1.9916992,31.9999981,1.9916992   S15.1494122,9.5512695,15.1494122,18.8427734S22.7089825,35.6933594,31.9999981,35.6933594z M31.9999981,3.9916992   c8.1884747,0,14.850584,6.6621094,14.850584,14.8510742c0,8.1884766-6.6621094,14.8505859-14.850584,14.8505859   S17.1494122,27.03125,17.1494122,18.8427734C17.1494122,10.6538086,23.8115215,3.9916992,31.9999981,3.9916992z"></path><path d="M31.9999981,7.0507813c0.6035137,0,1.0937481-0.4902344,1.0937481-1.0922852   c0-0.6030273-0.4902344-1.0932617-1.0937481-1.0932617c-0.6035156,0-1.09375,0.4902344-1.09375,1.0932617   C30.9062481,6.5605469,31.3964825,7.0507813,31.9999981,7.0507813z"></path><path d="M31.9999981,30.6347656c-0.6035156,0-1.09375,0.4902344-1.09375,1.0932617   c0,0.6020508,0.4902344,1.0917969,1.09375,1.0917969C33.4468117,32.8198242,33.4468002,30.6347656,31.9999981,30.6347656z"></path><path d="M23.6669903,10.4995117c0.4208984-0.4262695,0.4189453-1.1171875-0.0087891-1.5449219   c-0.3710938-0.3676758-1.1572266-0.3701172-1.53125-0.0043945c-0.4264545,0.4145479-0.4366894,1.1226988-0.0146484,1.550293   C22.5362682,10.931078,23.2496605,10.9233627,23.6669903,10.4995117z"></path><path d="M41.8779259,28.7304688c0.4412193-0.4349728,0.4218483-1.1277809,0.0107422-1.5454102   c-0.4418411-0.4471283-1.146862-0.4146996-1.5556641,0.0004883c-0.4179688,0.4233398-0.4179688,1.112793,0,1.5361328   C40.7480354,29.1431961,41.4534187,29.1505318,41.8779259,28.7304688z"></path><path d="M19.116209,17.7490234c-0.6035156,0-1.09375,0.4902344-1.09375,1.0932617s0.4902344,1.0932617,1.09375,1.0932617   c0.6015377,0,1.0917969-0.4902344,1.0917969-1.0932617S19.7177467,17.7490234,19.116209,17.7490234z"></path><path d="M44.8847618,19.9360352c1.4430847,0,1.445076-2.1865234,0-2.1865234c-0.6035156,0-1.09375,0.4902344-1.09375,1.0932617   S44.2812462,19.9360352,44.8847618,19.9360352z"></path><path d="M22.1103497,27.1845703c-0.4179688,0.4233398-0.4179688,1.112793,0.0097656,1.5458984   c0.4239826,0.4195423,1.1312046,0.4123993,1.546875-0.0097656c0.4169922-0.4228516,0.4169922-1.1118164-0.0107422-1.5449219   C23.219286,26.7439957,22.5255527,26.7628803,22.1103497,27.1845703z"></path><path d="M41.8789024,10.5097656c0.437439-0.4322557,0.4232941-1.1249352,0.0087891-1.5449219   c-0.4373932-0.4436731-1.1364746-0.4191875-1.5498047-0.0058594c-0.4238281,0.4233398-0.4257813,1.1147461,0.0048599,1.5507813   C40.7597427,10.922369,41.455719,10.9263382,41.8789024,10.5097656z"></path><path d="M26.4121075,26.0209961l4.6816406-4.6818848V26.90625c0,0.5522461,0.4472656,1,0.9999981,1c0.5527344,0,1-0.4477539,1-1   v-6.1951904c0.7763977-0.4415054,1.2358131-1.350565,0.9577637-2.3299561l0.9152832-0.9152832   c0.390625-0.390625,0.390625-1.0234375,0-1.4140625s-1.0234375-0.390625-1.4140625,0l-0.4589844,0.4589844V9.824707   c0-0.5522461-0.4472656-1-1-1c-0.5527325,0-0.9999981,0.4477539-0.9999981,1v7.3343506   c-0.773098,0.4384232-1.2304115,1.3431511-0.9642944,2.3161621l-5.1314087,5.1317139   c-0.390625,0.390625-0.390625,1.0234375,0,1.4140625C25.3886585,26.4116096,26.021471,26.4116325,26.4121075,26.0209961z"></path></g></svg>