<svg height='100px' width='100px'  fill="#00a0dd" xmlns="http://www.w3.org/2000/svg" xmlns:xlink="http://www.w3.org/1999/xlink" version="1.1" x="0px" y="0px" viewBox="0 0 100 100" style="enable-background:new 0 0 100 100;" xml:space="preserve"><path d="M90.9,60.4l-19.5,5.5V66c0.5,2,0.2,4-0.8,5.8c-1.1,1.9-2.8,3.3-4.9,3.8c-2.1,0.6-4.3,0.3-6.1-0.7l-11.2-6.3  l1.1-1.9L60.7,73c1.4,0.8,3,1,4.5,0.5c1.5-0.4,2.8-1.4,3.5-2.8c0.4-0.7,0.6-1.5,0.7-2.3c0.3-2-0.6-3.9-2.3-4.9L39.8,48.4  c0,0-2.9-1.9-6.7-0.8c0,0,0,0-0.1,0c-0.7,0.1-30,8.5-31.3,8.9H1.6l6,21l19.6-5.6c2,1.2,16.9,10.5,18.8,11.5c3.3,1.9,7.4,0.9,8.3,0.6  c0.1,0,40-11.4,40-11.4c2.8-0.8,5-4.5,4-8.2C97.4,61.4,94.1,59.5,90.9,60.4z"></path><path d="M81.3,23.7c0.2,0.2,0.5,0.2,0.8,0.2c0.2,0,0.4,0,0.6-0.1c0.2-0.1,0.4-0.3,0.5-0.5l2.9-4.2c0.2-0.3,0.3-0.7,0.2-1  c-0.1-0.4-0.3-0.7-0.6-0.9v0c-0.4-0.3-0.8-0.3-1.3-0.2l-0.1,0c-0.2,0.1-0.4,0.3-0.5,0.5L81,21.8c-0.2,0.3-0.3,0.7-0.2,1  C80.8,23.2,81,23.5,81.3,23.7z"></path><path d="M60.4,23.4c0.1,0.2,0.3,0.3,0.6,0.4c0.2,0.1,0.3,0.1,0.5,0.1c0.3,0,0.6-0.1,0.8-0.3c0.3-0.2,0.5-0.5,0.5-0.9  c0-0.4-0.1-0.7-0.3-1l-3.1-4.1c-0.2-0.2-0.3-0.3-0.6-0.4l-0.1,0c-0.4-0.1-0.9-0.1-1.3,0.2C57.2,17.6,57,18,57,18.3  c0,0.4,0,0.7,0.3,1L60.4,23.4z"></path><path d="M91.3,36.4l-8.8-9.7c-0.3-0.3-0.6-0.5-1-0.5l-19.4,0c0,0-0.1,0-0.2,0c-0.3,0-0.7,0.2-0.9,0.5l-8.8,9.7  c-0.5,0.5-0.5,1.4,0,1.9l18.6,18.6c0.2,0.2,0.6,0.4,1,0.4c0.4,0,0.7-0.1,1-0.4l18.6-18.6C91.8,37.8,91.8,36.9,91.3,36.4z M87.2,35.9  h-6.6l-3.3-7h3.6L87.2,35.9z M77.6,38.7l-5.9,13.7l-5.9-13.7H77.6z M65.9,35.9l3.3-7h4.9l3.3,7H65.9z M62.9,38.7l4.8,11.1L56.5,38.7  H62.9z M66.2,29l-3.3,7h-6.6l6.3-7H66.2z M86.9,38.7L75.8,49.8l4.8-11.1H86.9z"></path><path d="M71.7,22.4C71.7,22.4,71.7,22.4,71.7,22.4c0.5,0,0.9-0.3,1.2-0.7c0.1-0.2,0.2-0.4,0.2-0.7l0.1-5.1c0-0.4-0.1-0.7-0.4-1  c-0.3-0.3-0.6-0.4-1-0.4c0,0,0,0,0,0c-0.4,0-0.9,0.2-1.1,0.6l0,0.1c-0.1,0.2-0.2,0.4-0.2,0.7l-0.1,5.1c0,0.4,0.1,0.7,0.4,1  C71,22.3,71.4,22.4,71.7,22.4z"></path></svg>