<svg height='100px' width='100px'  fill="#00A0DD" xmlns="http://www.w3.org/2000/svg" xmlns:xlink="http://www.w3.org/1999/xlink" xml:space="preserve" version="1.1" style="shape-rendering:geometricPrecision;text-rendering:geometricPrecision;image-rendering:optimizeQuality;" viewBox="0 0 280 280" x="0px" y="0px" fill-rule="evenodd" clip-rule="evenodd"><defs><style type="text/css">
   
    .fil0 {fill:#00A0DD;fill-rule:nonzero}
   
  </style></defs><g><path class="fil0" d="M229.546 98.016l-35.365 0c-1.347,0 -2.571,0.551 -3.459,1.438 -0.888,0.888 -1.439,2.112 -1.439,3.459l0 71.183 0 17.11 0 1.074c0,1.348 0.551,2.572 1.439,3.46 0.888,0.887 2.112,1.438 3.459,1.438l6.485 0 0.004 -0.037 0.008 -0.065 0.029 -0.237 0.013 -0.101 0.025 -0.189 0.024 -0.167 0.018 -0.128 0.025 -0.167 0.023 -0.141 0.028 -0.172 0.002 -0.015 0.046 -0.263 0.003 -0.018 0.052 -0.28 0 -0.001 0.038 -0.191 0.02 -0.103 0.038 -0.181 0.027 -0.128 0.031 -0.144 0.04 -0.176 0.03 -0.13 0.032 -0.137 0.043 -0.179 0.004 -0.013 0.062 -0.247 0.006 -0.026 0.072 -0.273 0.072 -0.259 0.004 -0.014 0.059 -0.206 0.026 -0.09 0.051 -0.169 0.048 -0.16 0.032 -0.102 0.058 -0.182 0.044 -0.136 0.036 -0.11 0.059 -0.176 0.001 -0.004 0.092 -0.264 0.003 -0.009 0.091 -0.254 0.004 -0.01 0.047 -0.128 0.067 -0.181 0.044 -0.113 0.056 -0.146 0.056 -0.141 0.063 -0.157 0.047 -0.117 0.093 -0.223 0.018 -0.044 0.065 -0.15 0.132 -0.301 0.039 -0.089 0.019 -0.041 0.028 -0.061 0.089 -0.194 0.069 -0.147 0.041 -0.088 0.083 -0.171 0.07 -0.143 0.049 -0.099 0.092 -0.182 0.036 -0.071 0.024 -0.048 0.123 -0.237 0.005 -0.007 0.129 -0.243 0.018 -0.032 0.037 -0.068 0.105 -0.19 0.039 -0.07 0.107 -0.189 0.053 -0.091 0.091 -0.156 0.076 -0.129 0.059 -0.099 0.094 -0.156 0.008 -0.012 0.135 -0.219 0.009 -0.015 0.147 -0.232 0.014 -0.022 0.135 -0.209 0.018 -0.027 0.074 -0.112 0.086 -0.129 0.087 -0.128 0.086 -0.126 0.073 -0.106 0.134 -0.19 0.028 -0.039 0.137 -0.19 0.041 -0.058 0.016 -0.021 0.162 -0.221 0.011 -0.014 0.183 -0.242 0.042 -0.053 0.132 -0.17 0.072 -0.092 0.122 -0.154 0.062 -0.077 0.14 -0.171 0.045 -0.056 0.144 -0.172 0.047 -0.056 0.022 -0.026 0.178 -0.208 0.006 -0.007 0.174 -0.199 0.035 -0.039 0.147 -0.165 0.021 -0.023 0.114 -0.124 0.1 -0.109 0.083 -0.089 0.135 -0.144 0.07 -0.073 0.129 -0.134 0.066 -0.069 0.031 -0.031 0.192 -0.194c4.787,-4.786 11.399,-7.748 18.703,-7.748 7.304,0 13.917,2.962 18.703,7.748l0.192 0.194 0.031 0.031 0.067 0.069 0.129 0.134 0.069 0.073 0.135 0.144 0.084 0.089 0.1 0.109 0.113 0.124 0.021 0.023 0.147 0.165 0.035 0.039 0.174 0.199 0.006 0.007 0.178 0.208 0.023 0.026 0.046 0.056 0.144 0.172 0.046 0.056 0.139 0.171 0.062 0.077 0.123 0.154 0.072 0.092 0.132 0.17 0.041 0.053 0.183 0.242 0.011 0.014 0.163 0.221 0.015 0.021 0.042 0.058 0.137 0.19 0.027 0.039 0.134 0.19 0.073 0.106 0.087 0.126 0.086 0.128 0.086 0.129 0.074 0.112 0.018 0.027 0.135 0.209 0.015 0.022 0.146 0.232 0.01 0.015 0.135 0.219 0.007 0.012 0.094 0.156 0.059 0.099 0.077 0.129 0.091 0.156 0.052 0.091 0.107 0.189 0.04 0.07 0.104 0.19 0.038 0.068 0.017 0.032 0.13 0.243 0.004 0.007 0.123 0.237 0.025 0.048 0.036 0.071 0.092 0.182 0.048 0.099 0.071 0.143 0.082 0.171 0.041 0.088 0.07 0.147 0.089 0.194 0.028 0.061 0.018 0.041 0.04 0.089 0.132 0.301 0.064 0.15 0.018 0.044 0.093 0.223 0.048 0.117 0.063 0.157 0.055 0.141 0.057 0.146 0.043 0.113 0.068 0.181 0.047 0.128 0.004 0.01 0.091 0.254 0.003 0.009 0.091 0.264 0.002 0.004 0.058 0.176 0.037 0.11 0.044 0.136 0.057 0.182 0.032 0.102 0.049 0.16 0.05 0.169 0.026 0.09 0.06 0.206 0.003 0.014 0.072 0.259 0.072 0.273 0.007 0.026 0.062 0.247 0.003 0.013 0.043 0.179 0.033 0.137 0.03 0.13 0.039 0.176 0.032 0.144 0.027 0.128 0.037 0.181 0.021 0.103 0.037 0.191 0 0.001 0.052 0.28 0.003 0.018 0.046 0.263 0.002 0.015 0.028 0.172 0.023 0.141 0.025 0.167 0.019 0.128 0.023 0.167 0.026 0.189 0.012 0.101 0.029 0.237 0.008 0.065 0.004 0.037 6.123 0c1.347,0 2.571,-0.551 3.459,-1.438 0.888,-0.888 1.439,-2.112 1.439,-3.46l0 -10.112 -9.115 0c-1.02,0 -1.948,-0.417 -2.622,-1.09l-0.005 0c-0.673,-0.673 -1.091,-1.603 -1.091,-2.627l0 -10.374c0,-1.023 0.418,-1.954 1.091,-2.628l0.003 0.003c0.676,-0.675 1.605,-1.094 2.624,-1.094l9.115 0 0 -20.036 -30.677 -44.213c-0.481,-0.693 -1.07,-1.222 -1.736,-1.57 -0.657,-0.343 -1.431,-0.523 -2.292,-0.523zm-125.971 -12.844c-0.841,-0.707 -0.95,-1.963 -0.242,-2.804 0.708,-0.841 1.964,-0.95 2.805,-0.242l7.823 6.587 13.839 -19.227c0.643,-0.893 1.889,-1.096 2.782,-0.453 0.893,0.643 1.095,1.888 0.453,2.781l-15.095 20.971 -0.094 0.117c-0.707,0.841 -1.963,0.95 -2.804,0.242l-9.467 -7.972zm14.024 -31.801c8.123,0 15.478,3.293 20.802,8.617 4.66,4.66 7.764,10.876 8.465,17.802l21.176 0c1.657,0 3,1.343 3,2.999l0 79.335 6.269 0c2.172,0 4.213,0.585 5.972,1.604l0 -60.815c0,-3.003 1.223,-5.728 3.196,-7.701 1.973,-1.973 4.698,-3.196 7.702,-3.196l35.365 0c1.808,0 3.519,0.421 5.058,1.226 1.53,0.801 2.851,1.969 3.891,3.469l31.077 44.789c0.424,0.517 0.679,1.179 0.679,1.9l0 48.88c0,3.004 -1.224,5.73 -3.197,7.702 -1.972,1.973 -4.697,3.196 -7.701,3.196l-6.123 0c-0.689,6.106 -3.457,11.582 -7.579,15.703 -0.998,0.999 -2.077,1.918 -3.225,2.747l16.362 0c1.105,0 2,0.896 2,2.001 0,1.104 -0.895,2 -2,2l-24.611 0c-2.297,0.651 -4.722,1 -7.229,1 -2.506,0 -4.931,-0.349 -7.229,-1l-32.983 0c-1.105,0 -2,-0.896 -2,-2 0,-1.105 0.895,-2.001 2,-2.001l24.734 0c-1.148,-0.829 -2.226,-1.748 -3.225,-2.747 -4.121,-4.121 -6.889,-9.597 -7.578,-15.703l-6.486 0c-3.004,0 -5.729,-1.223 -7.702,-3.196 -0.172,-0.172 -0.338,-0.351 -0.499,-0.534 -0.069,0.072 -0.14,0.145 -0.211,0.216 -2.168,2.168 -5.162,3.514 -8.458,3.514l-51.325 0c-0.689,6.106 -3.457,11.582 -7.578,15.703 -0.999,0.999 -2.078,1.918 -3.225,2.747l40.296 0c1.104,0 2,0.896 2,2.001 0,1.104 -0.896,2 -2,2l-48.545 0c-2.298,0.651 -4.723,1 -7.229,1 -2.507,0 -4.932,-0.349 -7.229,-1l-50.814 0c-1.104,0 -2,-0.896 -2,-2 0,-1.105 0.896,-2.001 2,-2.001l42.564 0c-1.147,-0.829 -2.226,-1.748 -3.224,-2.747 -4.122,-4.121 -6.89,-9.597 -7.579,-15.703l-17.462 0c-3.296,0 -6.29,-1.346 -8.458,-3.514 -2.168,-2.168 -3.514,-5.163 -3.514,-8.458l0 -17.11c0,-3.295 1.346,-6.289 3.514,-8.458 2.168,-2.168 5.162,-3.514 8.458,-3.514l8.195 0 0 -79.335c0,-1.656 1.343,-2.999 3,-2.999l21.176 0c0.701,-6.926 3.805,-13.142 8.465,-17.802 5.324,-5.324 12.679,-8.617 20.802,-8.617zm29.267 32.418c-0.701,6.926 -3.805,13.142 -8.465,17.802 -5.324,5.324 -12.679,8.617 -20.802,8.617 -8.123,0 -15.478,-3.293 -20.802,-8.617 -4.66,-4.66 -7.764,-10.876 -8.465,-17.802l-18.176 0 0 76.335 94.886 0 0 -76.335 -18.176 0zm-11.293 -20.973c-4.599,-4.6 -10.954,-7.445 -17.974,-7.445 -7.019,0 -13.375,2.845 -17.974,7.445 -4.246,4.245 -6.996,9.988 -7.394,16.368 0.295,0.464 0.465,1.015 0.465,1.605 0,0.591 -0.17,1.142 -0.465,1.606 0.398,6.38 3.148,12.123 7.394,16.368 4.599,4.6 10.955,7.445 17.974,7.445 7.02,0 13.375,-2.845 17.974,-7.445 4.44,-4.439 7.245,-10.515 7.434,-17.246 -0.058,-0.233 -0.089,-0.477 -0.089,-0.728 0,-0.25 0.031,-0.494 0.089,-0.727 -0.189,-6.73 -2.994,-12.807 -7.434,-17.246zm38.117 160.813c-1.105,0 -2,-0.896 -2,-2 0,-1.105 0.895,-2.001 2,-2.001l3.642 0c1.105,0 2,0.896 2,2.001 0,1.104 -0.895,2 -2,2l-3.642 0zm-37.532 -73.526c-0.828,0 -1.5,-0.672 -1.5,-1.5 0,-0.828 0.672,-1.5 1.5,-1.5l11.285 0c0.828,0 1.5,0.672 1.5,1.5 0,0.828 -0.672,1.5 -1.5,1.5l-11.285 0zm47.125 21.993c0,-1.639 -0.672,-3.131 -1.756,-4.215 -1.084,-1.084 -2.577,-1.757 -4.216,-1.757l-9.243 0 -0.026 0 -0.026 0 -100.834 0 -0.026 0 -0.026 0 -11.169 0c-1.639,0 -3.132,0.673 -4.216,1.757 -1.083,1.083 -1.756,2.576 -1.756,4.215l0 17.11c0,1.639 0.673,3.132 1.756,4.216 1.084,1.084 2.577,1.756 4.216,1.756l17.462 0c0.689,-6.105 3.457,-11.582 7.579,-15.703 4.786,-4.786 11.399,-7.748 18.703,-7.748 7.303,0 13.916,2.962 18.703,7.748 4.121,4.121 6.889,9.598 7.578,15.703l51.325 0c1.639,0 3.132,-0.672 4.216,-1.756 1.084,-1.084 1.756,-2.577 1.756,-4.216l0 -17.11zm80.968 5.072l0 -11.81 -9.115 0c-0.199,0 -0.379,0.079 -0.506,0.207l0 0.005c-0.13,0.131 -0.212,0.311 -0.212,0.507l0 10.374c0,0.196 0.082,0.376 0.212,0.506l-0.003 0.003c0.13,0.128 0.31,0.208 0.509,0.208l9.115 0zm-253.001 -36.313c-0.828,0 -1.5,-0.671 -1.5,-1.5 0,-0.828 0.672,-1.5 1.5,-1.5l1.537 0c0.829,0 1.5,0.672 1.5,1.5 0,0.829 -0.671,1.5 -1.5,1.5l-1.537 0zm13.813 0c-0.828,0 -1.5,-0.671 -1.5,-1.5 0,-0.828 0.672,-1.5 1.5,-1.5l31.361 0c0.829,0 1.501,0.672 1.501,1.5 0,0.829 -0.672,1.5 -1.501,1.5l-31.361 0zm7.416 -19.995c-0.828,0 -1.5,-0.672 -1.5,-1.5 0,-0.829 0.672,-1.5 1.5,-1.5l23.945 0c0.829,0 1.501,0.671 1.501,1.5 0,0.828 -0.672,1.5 -1.501,1.5l-23.945 0zm168.17 33.941c-0.828,0 -1.5,-0.672 -1.5,-1.5 0,-0.828 0.672,-1.5 1.5,-1.5l7.428 0c0.828,0 1.5,0.672 1.5,1.5 0,0.828 -0.672,1.5 -1.5,1.5l-7.428 0zm-100.944 34.469c2.454,0 4.679,0.998 6.291,2.61l0.003 0.003 0.004 -0.003c1.612,1.612 2.61,3.839 2.61,6.298 0,2.459 -0.998,4.687 -2.61,6.299 -1.612,1.612 -3.839,2.609 -6.298,2.609 -2.459,0 -4.687,-0.998 -6.299,-2.61l-0.114 -0.125c-1.545,-1.605 -2.495,-3.781 -2.495,-6.173 0,-2.452 0.999,-4.678 2.613,-6.294l-0.004 -0.004c1.612,-1.612 3.84,-2.61 6.299,-2.61zm3.474 5.434c-0.887,-0.886 -2.116,-1.434 -3.474,-1.434 -1.356,0 -2.583,0.55 -3.471,1.438l-0.004 -0.004 -0.003 0.004c-0.883,0.882 -1.43,2.109 -1.43,3.47 0,1.318 0.513,2.51 1.347,3.386l0.09 0.085c0.888,0.887 2.115,1.437 3.471,1.437 1.355,0 2.583,-0.55 3.47,-1.437 0.888,-0.888 1.437,-2.115 1.437,-3.471 0,-1.355 -0.549,-2.583 -1.437,-3.471l0.004 -0.003zm10.986 -10.987c-3.7,-3.7 -8.813,-5.99 -14.46,-5.99 -5.648,0 -10.76,2.29 -14.461,5.99 -3.701,3.701 -5.99,8.814 -5.99,14.461 0,5.647 2.289,10.76 5.99,14.461 3.701,3.701 8.813,5.99 14.461,5.99 5.647,0 10.76,-2.289 14.46,-5.99 3.701,-3.701 5.99,-8.814 5.99,-14.461 0,-5.647 -2.289,-10.76 -5.99,-14.461zm112.783 5.553c2.454,0 4.679,0.998 6.291,2.61l0.004 0.003 0.004 -0.003c1.612,1.612 2.609,3.839 2.609,6.298 0,2.459 -0.997,4.687 -2.609,6.299 -1.612,1.612 -3.839,2.609 -6.299,2.609 -2.459,0 -4.686,-0.998 -6.298,-2.61l-0.115 -0.125c-1.544,-1.605 -2.495,-3.781 -2.495,-6.173 0,-2.452 0.999,-4.678 2.614,-6.294l-0.004 -0.004c1.612,-1.612 3.839,-2.61 6.298,-2.61zm3.475 5.434c-0.888,-0.886 -2.116,-1.434 -3.475,-1.434 -1.355,0 -2.583,0.55 -3.47,1.438l-0.004 -0.004 -0.004 0.004c-0.883,0.882 -1.429,2.109 -1.429,3.47 0,1.318 0.512,2.51 1.346,3.386l0.091 0.085c0.887,0.887 2.115,1.437 3.47,1.437 1.356,0 2.583,-0.55 3.471,-1.437 0.887,-0.888 1.437,-2.115 1.437,-3.471 0,-1.355 -0.55,-2.583 -1.437,-3.471l0.004 -0.003zm-23.925 3.474c0,5.647 2.289,10.76 5.99,14.461 3.7,3.701 8.813,5.99 14.46,5.99 5.647,0 10.76,-2.289 14.461,-5.99 3.7,-3.701 5.99,-8.814 5.99,-14.461 0,-5.647 -2.29,-10.76 -5.99,-14.461 -3.701,-3.7 -8.814,-5.99 -14.461,-5.99 -5.647,0 -10.76,2.29 -14.46,5.99 -3.701,3.701 -5.99,8.814 -5.99,14.461zm40.559 -58.778l-21.539 -32.353 -22.868 0 0 32.353 44.407 0zm-18.809 -35.455l24.125 36.239c0.259,0.337 0.412,0.759 0.412,1.216 0,1.105 -0.895,2.001 -2,2.001l-50.136 0c-1.104,0 -2,-0.896 -2,-2.001l0 -36.354c0,-1.104 0.896,-2 2,-2l25.935 0 0 0.005c0.646,0.001 1.28,0.315 1.664,0.894z"></path></g></svg>