<svg height='100px' width='100px'  fill="#00a0dd" xmlns="http://www.w3.org/2000/svg" xmlns:xlink="http://www.w3.org/1999/xlink" xml:space="preserve" style="shape-rendering:geometricPrecision;text-rendering:geometricPrecision;image-rendering:optimizeQuality;" viewBox="0 0 6827 6827" x="0px" y="0px" fill-rule="evenodd" clip-rule="evenodd"><defs><style type="text/css">
   
    .fil0 {fill:#00a0dd}
    .fil1 {fill:#00a0dd;fill-rule:nonzero}
   
  </style></defs><g><g><path class="fil0" d="M1356 1920l9 0c253,276 520,541 799,792l0 3261 -808 0 0 -4054z"></path><path class="fil0" d="M3375 3658l0 2315 -808 0 0 -2914c257,211 527,412 808,598z"></path><path class="fil0" d="M4586 4323l0 1651 -808 0 0 -2063c261,153 531,292 808,412z"></path><path class="fil0" d="M5798 4708l0 1266 -808 0 0 -1491c264,94 533,170 808,225z"></path><path class="fil1" d="M1386 940c6,8 1911,2533 4412,3101l0 317c-2138,-456 -3856,-2276 -4442,-2964l0 -431 30 -23z"></path><polygon class="fil0" points="1131,853 1956,956 1029,1678 "></polygon></g></g></svg>