<svg height='100px' width='100px'  fill="#00A0DD" xmlns="http://www.w3.org/2000/svg" xmlns:xlink="http://www.w3.org/1999/xlink" version="1.1" x="0px" y="0px" viewBox="0 0 512 512" enable-background="new 0 0 512 512" xml:space="preserve"><path d="M219.696,270.471c0-3.979-1.58-7.794-4.394-10.606l-72.675-72.676c-7.645-7.65-17.81-11.863-28.624-11.863  c-1.497,0-2.98,0.089-4.447,0.248v-47.79c0-22.322-18.162-40.482-40.487-40.482c-22.319,0-40.478,18.16-40.478,40.482v153.625  c0,3.978,1.58,7.793,4.393,10.605l53.414,53.424v28.74h-8.442v75.761h152.688v-75.761h-10.948V270.471z M189.696,374.178h-73.298  v-34.952c0-3.978-1.58-7.793-4.393-10.605l-53.414-53.424V127.783c0-5.78,4.7-10.482,10.478-10.482  c5.782,0,10.487,4.702,10.487,10.482v66.748c-3.929,6.331-6.038,13.641-6.038,21.277c0,10.813,4.211,20.98,11.861,28.632  l23.794,23.784l0,0l17.675,17.676l21.214-21.213l-17.678-17.679l-9.546,9.546l9.544-9.548l-23.791-23.78  c-1.981-1.982-3.073-4.617-3.073-7.418c0-2.798,1.09-5.43,3.072-7.411s4.614-3.072,7.413-3.072c2.796,0,5.425,1.089,7.406,3.072  l68.286,68.286V374.178z"></path><path d="M442.931,87.301c-22.319,0-40.479,18.16-40.479,40.482v47.791c-1.468-0.16-2.951-0.249-4.449-0.249  c-10.812,0-20.978,4.211-28.626,11.859l-72.68,72.68c-2.813,2.813-4.393,6.628-4.393,10.606v103.707h-10.949v75.761h152.697v-75.761  h-8.442v-28.74l53.407-53.425c2.812-2.813,4.391-6.627,4.391-10.604V127.783C483.408,105.461,465.25,87.301,442.931,87.301z   M453.408,275.196l-53.406,53.425c-2.813,2.813-4.392,6.627-4.392,10.604v34.952h-73.306v-97.494l68.285-68.286  c1.982-1.981,4.614-3.072,7.413-3.072c2.796,0,5.425,1.089,7.409,3.075c1.98,1.979,3.07,4.61,3.07,7.408  c0,2.801-1.092,5.435-3.073,7.417l-41.462,41.462L385.16,285.9l41.463-41.463c7.647-7.648,11.859-17.815,11.859-28.629  c0-7.633-2.107-14.938-6.03-21.266v-66.76c0-5.78,4.7-10.482,10.479-10.482s10.478,4.702,10.478,10.482V275.196z"></path><path d="M313.908,173.948c0-34.482-31.06-40.009-55.539-41.587c-16.583-1.055-24.217-5.792-24.217-14.215  c0-8.159,8.424-12.899,23.689-12.899c12.373,0,22.9,2.897,32.113,11.585l17.898-21.059c-11.695-10.262-23.564-14.907-37.826-16.462  v-17.25h-28.054V80.11c-19.892,3.767-39.406,15.304-39.406,39.089c0,29.48,29.218,38.431,53.696,40.273  c18.425,1.052,25.795,4.736,25.795,13.687c0,9.476-11.318,15.792-23.427,15.529c-14.477-0.263-35.534-7.896-44.746-18.161  l-15.794,22.899c13.98,14.562,28.818,20.238,43.882,22.217v17.548h28.054v-17.354C299.211,212.053,313.908,194.248,313.908,173.948z  "></path></svg>