<?xml version="1.0" encoding="utf-8"?>
<svg viewBox="0 0 378.19 378.19" style="enable-background:new 0 0 378.19 378.19;" xmlns="http://www.w3.org/2000/svg">
<title>Unilimpio Mucho más en higiene institucional</title>
<desc>Soluciones de higiene institucional. Fabricantes de productos de limpieza, DESINFECCIÓN, higiene de manos; Amonio Cuaternario, Gel antibacterial, limpión, dispensadores.</desc>
  <g>
    <path fill="#FFFFFF" d="M378.19,189.1c0,104.43-84.66,189.09-189.09,189.09C84.66,378.19,0,293.53,0,189.1C0,84.66,84.66,0,189.1,0 C293.53,0,378.19,84.66,378.19,189.1z"/>
    <g>
      <g>
        <path fill="#0F4B8F" d="M336.45,251.15v-0.05c0.78-0.23,1.41-0.81,1.41-1.77c0-0.69-0.23-1.19-0.66-1.5 c-0.44-0.32-1.16-0.55-2.26-0.55c-0.87,0-1.45,0.09-2.05,0.17v7.26h1.16v-3.12h0.81c0.93,0,1.38,0.35,1.56,1.27 c0.15,0.95,0.32,1.62,0.5,1.85h1.21c-0.12-0.23-0.29-0.66-0.46-1.79C337.51,251.84,337.08,251.26,336.45,251.15z M334.88,250.68 h-0.83v-2.45c0.2-0.03,0.46-0.06,0.83-0.06c1.31,0,1.77,0.64,1.77,1.27C336.65,250.33,335.84,250.68,334.88,250.68z"/>
        <path fill="#0F4B8F" d="M335.29,244.41h-0.04c-3.56,0-6.46,2.89-6.46,6.51c0,3.68,2.9,6.54,6.46,6.54c3.59,0,6.43-2.86,6.43-6.54 C341.68,247.3,338.85,244.41,335.29,244.41z M335.29,256.44c-2.9,0-5.24-2.43-5.24-5.53c0-3.03,2.34-5.5,5.21-5.5h0.04 c2.89,0,5.2,2.47,5.2,5.53C340.49,254.02,338.18,256.47,335.29,256.44z"/>
      </g>
      <g>
        <path fill="#76BC43" d="M85.06,289.15l-5.22,4.84l5.36,5.78l5.21-4.84l2,2.16l-12.38,11.49l-2-2.16l5.23-4.85l-5.36-5.78l-5.23,4.85 l-2-2.16L83.06,287L85.06,289.15z"/>
        <path fill="#76BC43" d="M96.33,300.55l-11.48,12.39l-2.16-2l11.48-12.38L96.33,300.55z"/>
        <path fill="#76BC43" d="M104.3,306.99c1.47,1.16,2.63,2.68,3.49,4.55l-1.86,2.34c-0.8-1.96-1.89-3.5-3.29-4.61 c-0.87-0.69-1.79-1.11-2.78-1.27c-0.98-0.15-1.94-0.02-2.89,0.41c-0.94,0.42-1.77,1.08-2.48,1.97c-1.07,1.35-1.53,2.76-1.38,4.23 c0.15,1.46,0.9,2.72,2.21,3.78c0.36,0.29,0.74,0.53,1.13,0.73c0.38,0.19,0.89,0.37,1.5,0.54l1.75-2.2l-1.97-1.57l1.59-1.99 l4.27,3.4l-4.34,5.44c-0.95,0-1.93-0.21-2.95-0.6c-1.02-0.4-1.98-0.95-2.86-1.66c-1.25-0.99-2.16-2.19-2.72-3.58 c-0.57-1.38-0.72-2.82-0.47-4.3c0.25-1.49,0.88-2.87,1.9-4.15c1.03-1.29,2.25-2.23,3.66-2.82c1.4-0.59,2.86-0.76,4.35-0.52 C101.66,305.35,103.03,305.98,104.3,306.99z"/>
        <path fill="#76BC43" d="M112.97,313.52l-9.49,13.97l-2.43-1.65l9.49-13.98L112.97,313.52z"/>
        <path fill="#76BC43" d="M123.32,319.86l-1.3,2.19l-5.92-3.51l-2.27,3.81l5.68,3.37l-1.31,2.19l-5.66-3.36l-2.46,4.12l6.06,3.6 l-1.3,2.19l-8.58-5.1l8.63-14.52L123.32,319.86z"/>
        <path fill="#76BC43" d="M127.04,321.8l3.23,14.49l4.97-10.69l2.61,1.21l-7.12,15.32l-2.29-1.06l-3.2-14.7l-5.05,10.87l-2.6-1.21 l7.11-15.32L127.04,321.8z"/>
        <path fill="#76BC43" d="M149.04,330.66l-0.84,2.41l-6.51-2.25l-1.45,4.19l6.24,2.16l-0.84,2.41l-6.22-2.16l-1.58,4.53l6.65,2.3 l-0.83,2.41l-9.43-3.26l5.53-15.97L149.04,330.66z"/>
        <path fill="#0F4B8F" d="M158.83,333.16l-3.9,16.44l-2.85-0.68l3.89-16.44L158.83,333.16z"/>
        <path fill="#0F4B8F" d="M163.54,334.2l7.14,13.02l1.79-11.65l2.83,0.44l-2.55,16.69l-2.5-0.37l-7.17-13.23l-1.81,11.85l-2.84-0.44 l2.56-16.69L163.54,334.2z"/>
        <path fill="#0F4B8F" d="M181.75,336.09c1.48,0.08,2.88,0.56,4.21,1.45l-0.15,2.9c-1.52-1.14-2.88-1.74-4.1-1.8 c-0.74-0.05-1.33,0.08-1.76,0.38c-0.43,0.3-0.67,0.71-0.69,1.25c-0.03,0.63,0.33,1.24,1.07,1.82c0.21,0.17,1.02,0.67,2.44,1.48 c1.2,0.72,2.07,1.49,2.57,2.32c0.51,0.83,0.74,1.8,0.68,2.92c-0.08,1.45-0.61,2.6-1.59,3.44c-0.98,0.84-2.23,1.22-3.72,1.14 c-0.97-0.05-1.79-0.22-2.48-0.49c-0.69-0.28-1.45-0.73-2.29-1.35l0.17-3.21c1.54,1.59,3.03,2.41,4.47,2.49 c0.71,0.03,1.3-0.11,1.76-0.43c0.46-0.32,0.71-0.77,0.74-1.34c0.04-0.78-0.31-1.44-1.05-1.98c-0.61-0.41-1.42-0.92-2.4-1.52 c-1.16-0.67-2.02-1.42-2.56-2.25c-0.55-0.84-0.79-1.78-0.73-2.85c0.07-1.42,0.6-2.52,1.6-3.31 C178.91,336.36,180.19,336,181.75,336.09z"/>
        <path fill="#0F4B8F" d="M200.2,336.2l0.08,2.56l-5.4,0.17l0.46,14.34l-2.93,0.09l-0.46-14.34l-5.39,0.17l-0.08-2.55L200.2,336.2z"/>
        <path fill="#0F4B8F" d="M204.28,335.65l1.68,16.81l-2.92,0.3l-1.67-16.81L204.28,335.65z"/>
        <path fill="#0F4B8F" d="M219.04,333.37l0.43,2.51l-5.32,0.91l2.4,14.14l-2.89,0.49l-2.4-14.13l-5.32,0.9l-0.43-2.51L219.04,333.37z"/>
        <path fill="#0F4B8F" d="M222.64,332.4l2.67,9.46c0.28,0.97,0.62,1.71,1.05,2.21c0.42,0.5,0.98,0.85,1.68,1.06 c0.7,0.21,1.44,0.2,2.23-0.02c0.86-0.25,1.55-0.63,2.05-1.15c0.5-0.52,0.81-1.13,0.92-1.81c0.11-0.69,0-1.57-0.3-2.65l-2.61-9.26 l2.83-0.79l2.73,9.66c0.61,2.19,0.5,4.04-0.35,5.55c-0.85,1.51-2.35,2.56-4.51,3.17c-1.36,0.38-2.6,0.44-3.75,0.19 c-1.15-0.25-2.13-0.81-2.94-1.68c-0.81-0.87-1.4-1.98-1.8-3.35l-2.75-9.78L222.64,332.4z"/>
        <path fill="#0F4B8F" d="M242.21,325.61c0.8-0.33,1.62-0.54,2.47-0.65c0.85-0.11,1.81-0.1,2.89,0.03l1.16,2.84 c-1.09-0.2-2.06-0.27-2.89-0.22c-0.83,0.05-1.66,0.24-2.45,0.57c-1,0.41-1.82,1-2.44,1.79c-0.61,0.79-0.98,1.69-1.09,2.71 c-0.1,1.02,0.05,2.04,0.47,3.06c0.42,1.04,1.03,1.89,1.81,2.54c0.78,0.65,1.66,1.04,2.66,1.16c0.99,0.12,1.99-0.02,2.99-0.43 c0.78-0.31,1.46-0.74,2.06-1.26c0.6-0.53,1.31-1.34,2.12-2.42l1.16,2.85c-0.71,0.9-1.39,1.62-2.05,2.15 c-0.69,0.53-1.53,1.01-2.55,1.43c-1.49,0.6-2.95,0.81-4.38,0.63c-1.44-0.19-2.75-0.75-3.92-1.72c-1.17-0.96-2.05-2.18-2.64-3.65 c-0.64-1.57-0.87-3.13-0.7-4.66c0.18-1.53,0.74-2.89,1.67-4.06C239.47,327.11,240.7,326.23,242.21,325.61z"/>
        <path fill="#0F4B8F" d="M251.43,321.58l7.5,15.14l-2.63,1.3l-7.5-15.14L251.43,321.58z"/>
        <path fill="#0F4B8F" d="M260.03,316.54c1.35-0.82,2.75-1.24,4.2-1.27c1.45-0.03,2.85,0.33,4.19,1.11c1.35,0.77,2.43,1.86,3.27,3.25 c0.81,1.35,1.26,2.8,1.33,4.32c0.07,1.54-0.24,2.95-0.95,4.25c-0.7,1.29-1.74,2.35-3.11,3.18c-1.35,0.82-2.76,1.24-4.26,1.24 c-1.49,0.02-2.89-0.35-4.19-1.11c-1.3-0.77-2.37-1.83-3.2-3.21c-0.8-1.32-1.24-2.75-1.33-4.29c-0.09-1.53,0.21-2.95,0.9-4.25 C257.59,318.46,258.63,317.39,260.03,316.54z M259.93,326.74c0.58,0.95,1.3,1.71,2.15,2.23c0.85,0.52,1.76,0.79,2.71,0.79 c0.95,0,1.86-0.27,2.75-0.81c1.33-0.81,2.15-1.93,2.45-3.38c0.3-1.45,0.01-2.92-0.89-4.38c-0.57-0.96-1.29-1.71-2.15-2.24 c-0.85-0.54-1.76-0.8-2.72-0.8c-0.97,0-1.88,0.28-2.77,0.81c-0.88,0.53-1.54,1.23-1.99,2.07c-0.45,0.85-0.63,1.78-0.55,2.76 C259.01,324.78,259.34,325.77,259.93,326.74z"/>
        <path fill="#0F4B8F" d="M270.37,310.01l14.38,3.69l-7.28-9.27l2.26-1.77l10.43,13.28l-1.99,1.56l-14.55-3.82l7.4,9.43l-2.26,1.77 l-10.43-13.28L270.37,310.01z"/>
        <path fill="#0F4B8F" d="M286.69,295.9l16.63,7.32l-2.21,2.18l-4.01-1.83l-4.81,4.74l1.84,3.97l-2.2,2.16l-7.39-16.43L286.69,295.9z M291.19,305.93l3.5-3.44l-6.53-2.95L291.19,305.93z"/>
        <path fill="#0F4B8F" d="M293.61,288.44l10.96,9.25l4.76-5.64l1.95,1.64l-6.65,7.88l-12.92-10.89L293.61,288.44z"/>
      </g>
      <g>
        <path fill="#00A0DD" d="M276.88,105.52c14.53,19.05,24.4,42.59,25.67,70.65c0.15,3.18,0.17,6.29,0.15,9.36 c0.61-0.26,1.21-0.54,1.85-0.77c0.69-0.26,1.4-0.48,2.12-0.7c0.07-2.51,0.11-5.05,0.09-7.65c-0.17-28.5-7.65-51.94-18.9-71.12 L276.88,105.52z"/>
        <path fill="#00A0DD" d="M301.76,218.97c-0.41,2.4-0.57,4.57-0.49,6.54c1.22-4.75,2.24-9.76,3.07-15.01 C303.18,212.93,302.31,215.74,301.76,218.97z"/>
        <path fill="#00A0DD" d="M136.24,90.83c16.67-3.49,42.23-22.9,43.86-43.91c24.87,4.79,53.07,17.06,76.15,36.86l3.75-12.67 c-35.05-32.2-77.46-43.52-80.56-44.18c-5.33-1.15-12.73-3.44-14.58-1.15c-1.86,2.3,2.81,6.91,4.16,16.51 c2.84,20.15-21.52,39.99-32.16,44.69C132.77,88.78,130.21,92.09,136.24,90.83z"/>
        <path fill="#00A0DD" d="M288.65,251.21c-0.62-0.4-1.23-0.81-1.81-1.24c-17.56,30.74-48.66,48.82-88.29,48.82 c-30.56,0-55.15-6.72-87.63-25.77c-14.9-8.73-17.1-13.5-19.06-12.23c-1.96,1.26,7.93,13.74,13.63,19.62 c5.85,6.02,35.68,34.15,80.36,35.25c28.56,0.71,79.88-11.35,105.48-62.99C290.41,252.22,289.51,251.74,288.65,251.21z"/>
      </g>
      <polygon fill="#76BC43" points="259.45,101.12 260.58,119.57 266.67,98.96 293.3,98.42 270.8,93.79 293.16,76.9 267.71,90.78 &#10;&#9;&#9;&#9;266.58,72.34 260.5,92.94 233.85,93.46 256.36,98.1 229.71,118.05 &#9;&#9;"/>
      <g>
        <path fill="#76BC43" d="M188.49,113.28c0.72-3.55,1.7-7.78,2.92-11.26h-23.97c0,4.82-0.49,9.29-1.3,14.58l-4.02,24.16 c-0.89,5.37-2.31,9.79-4.27,13.27c-1.95,3.48-4.3,6.03-7.03,7.63c-2.73,1.61-5.71,2.41-8.9,2.41c-3.33,0-6.1-0.82-8.28-2.44 c-2.18-1.62-3.67-4.18-4.46-7.69c-0.79-3.51-0.74-7.93,0.15-13.3l3.32-19.96h0.01c0,0,0.03-0.24,0.09-0.62l0.58-3.47 c0.7-3.92,1.91-9.92,3.54-14.57H112.9c0,4.33-0.4,8.39-1.07,13.01l-5.32,31.97c-1.5,9.04-0.77,16.38,2.18,22.02 c2.96,5.64,7.14,9.63,12.54,11.98c5.4,2.35,11.16,3.52,17.28,3.52c4.38,0,8.88-0.63,13.49-1.88c4.61-1.25,9.05-3.3,13.33-6.17 c4.29-2.85,7.99-6.73,11.12-11.65c3.13-4.91,5.27-10.85,6.43-17.82L188.49,113.28z"/>
        <path fill="#76BC43" d="M243.36,149.54c2.85-17.15-2.09-25.72-14.82-25.72c-3.65,0-7.08,0.71-10.29,2.14 c-3.18,1.41-6.51,3.87-10.02,7.36c0.59-2.77,1.35-5.86,2.27-8.47h-20.7c0,4.24-0.44,8.16-1.17,12.84l-5.13,30.85h-0.01 c0,0-0.01,0.09-0.03,0.2l-0.62,3.7c-0.61,3.39-1.64,8.34-2.99,12.23h20.7c0-3.96,0.38-7.63,1.02-11.92l3.86-23.21 c0.83-1.06,1.64-2.06,2.43-3c0.78-0.94,1.71-1.92,2.8-2.93c1.09-1.02,2.28-1.85,3.56-2.5c1.26-0.65,2.66-0.97,4.2-0.97 c3.23,0,5.13,1.23,5.68,3.66c0.55,2.45,0.55,5.32,0,8.61l-3.54,21.3c-0.62,3.28-1.56,7.53-2.76,10.95h20.7 c0-5.01,0.62-9.57,1.59-15.47L243.36,149.54z"/>
        <path fill="#76BC43" d="M271.48,124.86h-20.7c0,3.82-0.36,7.38-0.96,11.47l-6.31,37.94c-0.62,3.19-1.52,7.17-2.65,10.4h20.7 c0-3.76,0.34-7.27,0.92-11.27l6.37-38.3C269.48,131.94,270.37,128.04,271.48,124.86z"/>
      </g>
      <g>
        <path fill="#0F4B8F" d="M100.14,198.91c0.61-2.96,1.43-6.39,2.42-9.24h-20.7c0,4.86-0.57,9.31-1.5,14.97l-6.01,36.2 c-0.6,2.83-1.37,6.02-2.3,8.69h0.86l0,0h18.83h0h1.01c0-5.19,0.65-9.91,1.69-16.13h-0.02L100.14,198.91z"/>
        <path fill="#0F4B8F" d="M190.63,249.53L190.63,249.53h0.93c0-3.5,0.31-6.82,0.82-10.5l4.31-25.95c0.86-5.16,0.9-9.56,0.13-13.18 c-0.78-3.62-2.44-6.39-4.99-8.31c-2.55-1.92-5.95-2.88-10.19-2.88c-4.24,0-8.15,0.98-11.72,2.94c-3.58,1.96-7.2,4.85-10.87,8.69 c-0.42-2.07-1.14-3.89-2.17-5.46c-1.02-1.56-2.25-2.8-3.68-3.7c-1.43-0.89-2.93-1.53-4.51-1.91c-1.57-0.37-3.27-0.56-5.07-0.56 c-3.83,0-7.33,0.76-10.51,2.3c-3.13,1.5-6.37,3.92-9.72,7.24c0.59-2.81,1.36-5.94,2.28-8.58h-20.7c0,4.53-0.49,8.69-1.31,13.81 l-4.98,29.92l0,0c0,0-0.02,0.14-0.05,0.4l-0.55,3.26c-0.61,3.39-1.65,8.5-3.04,12.47h0.97h0h18.78h0h0.96 c0-3.88,0.36-7.51,0.98-11.68l3.89-23.42c0.34-0.38,1.16-1.35,2.46-2.87c1.3-1.53,2.38-2.68,3.24-3.47 c0.86-0.78,1.93-1.49,3.2-2.12c1.26-0.62,2.6-0.94,3.99-0.94c2.92,0,4.77,1.1,5.56,3.29c0.78,2.2,0.83,5.3,0.17,9.34l-2.61,15.74 h-0.02c0,0-1.36,9.6-3.64,16.13h0.98l0,0h18.78l0,0h0.95c0-3.71,0.34-7.19,0.91-11.14l3.98-23.96c2.12-2.7,4.16-4.94,6.12-6.72 c1.97-1.78,4.25-2.68,6.86-2.68c2.68,0,4.47,1.05,5.35,3.14c0.88,2.09,0.98,5.26,0.27,9.48l-2.62,15.74h-0.03 c0,0-1.36,9.6-3.65,16.13h1h-0.01H190.63z"/>
        <path fill="#0F4B8F" d="M257.59,202.02c-1.64-4.56-4.14-7.92-7.51-10.07c-3.36-2.15-6.97-3.23-10.83-3.23 c-3.9,0-7.09,0.62-9.57,1.85c-2.32,1.16-4.51,2.59-6.57,4.27c0.44-1.78,0.95-3.57,1.5-5.17h-20.7c0,3.24-0.25,6.3-0.7,9.66 l-11.26,67.78c-0.62,3.07-1.47,6.7-2.51,9.69h20.7c0-5.19,0.65-9.9,1.69-16.12h-0.03l2.43-14.6c1.76,1.37,3.56,2.47,5.42,3.29 c1.87,0.82,4.53,1.23,8.01,1.23c4.31,0,8.24-0.87,11.78-2.61c3.54-1.74,6.59-4.11,9.16-7.1c2.57-3,4.66-6.35,6.29-10.07 c1.62-3.72,2.77-7.58,3.44-11.57C259.47,212.32,259.23,206.58,257.59,202.02z M238.47,219.72c-0.8,4.85-2.43,8.69-4.88,11.51 c-2.45,2.82-5.15,4.23-8.11,4.23c-0.98,0-1.87-0.12-2.68-0.35c-0.81-0.24-1.56-0.53-2.25-0.88c-0.69-0.35-1.37-0.77-2.04-1.26 c-0.66-0.49-1.3-0.93-1.89-1.32l3.8-22.84c1.45-1.21,2.96-2.22,4.52-3.03c1.56-0.8,3.44-1.2,5.67-1.2c1.71,0,3.28,0.5,4.71,1.49 c1.43,1,2.46,2.63,3.1,4.88C239.05,213.2,239.08,216.12,238.47,219.72z"/>
        <path fill="#0F4B8F" d="M344.35,219.61c0.75-4.5,0.78-8.62,0.12-12.33c-0.66-3.72-2.03-6.97-4.09-9.74 c-2.06-2.78-4.89-4.95-8.48-6.49c-3.58-1.55-7.88-2.32-12.88-2.32c-4.97,0-9.48,0.76-13.53,2.3c-4.04,1.53-7.6,3.71-10.66,6.54 c-3.06,2.85-5.53,6.1-7.41,9.78c-1.88,3.68-3.2,7.77-3.95,12.28c-0.98,5.95-0.73,11.25,0.78,15.91c1.5,4.66,4.32,8.34,8.45,11.04 c4.12,2.7,9.47,4.05,16.05,4.05c6.57,0,12.36-1.35,17.39-4.05c5.02-2.7,9.07-6.38,12.14-11.04 C341.33,230.86,343.36,225.55,344.35,219.61z M324.58,219.61c-0.79,4.74-2.33,8.46-4.6,11.18c-2.28,2.72-5.16,4.08-8.64,4.08 c-3.41,0-5.8-1.36-7.19-4.11c-1.39-2.74-1.69-6.46-0.91-11.15c0.79-4.74,2.33-8.44,4.59-11.13c2.27-2.68,5.13-4.02,8.57-4.02 c3.48,0,5.91,1.34,7.3,4.02C325.08,211.16,325.37,214.87,324.58,219.61z"/>
        <path fill="#0F4B8F" d="M286.19,189.67h-20.7c0,3.86-0.36,7.45-0.97,11.59l-5.34,32.14h-0.06c0,0-1.36,9.6-3.63,16.13h1.01h0h18.83 h0.01h0.85c0-2.83,0.2-5.53,0.54-8.39l6.87-41.35C284.22,196.64,285.09,192.81,286.19,189.67z"/>
        <path fill="#0F4B8F" d="M72.11,230.73H56.69l9.32-56.27c0.55-2.45,1.22-5.06,2.01-7.31H46.88c0,5.19-0.65,9.9-1.69,16.12l0,0 l-9,54.36c-0.62,3.37-1.62,8.14-2.94,11.9h0.95l0,0h15.28c0,0.02-0.01-0.01-0.01,0h20.41c0-5.19,0.65-9.83,1.7-16.05h-0.02 L72.11,230.73z"/>
      </g>
    </g>
  </g>
</svg>